G04 #@! TF.GenerationSoftware,KiCad,Pcbnew,(5.1.9)-1*
G04 #@! TF.CreationDate,2021-05-10T16:50:12-05:00*
G04 #@! TF.ProjectId,mini-remote,6d696e69-2d72-4656-9d6f-74652e6b6963,1*
G04 #@! TF.SameCoordinates,Original*
G04 #@! TF.FileFunction,Copper,L1,Top*
G04 #@! TF.FilePolarity,Positive*
%FSLAX46Y46*%
G04 Gerber Fmt 4.6, Leading zero omitted, Abs format (unit mm)*
G04 Created by KiCad (PCBNEW (5.1.9)-1) date 2021-05-10 16:50:12*
%MOMM*%
%LPD*%
G01*
G04 APERTURE LIST*
G04 #@! TA.AperFunction,SMDPad,CuDef*
%ADD10R,2.100000X1.400000*%
G04 #@! TD*
G04 #@! TA.AperFunction,ComponentPad*
%ADD11O,1.700000X1.700000*%
G04 #@! TD*
G04 #@! TA.AperFunction,ComponentPad*
%ADD12C,1.700000*%
G04 #@! TD*
G04 #@! TA.AperFunction,ComponentPad*
%ADD13R,1.800000X1.800000*%
G04 #@! TD*
G04 #@! TA.AperFunction,ComponentPad*
%ADD14C,1.800000*%
G04 #@! TD*
G04 #@! TA.AperFunction,ViaPad*
%ADD15C,0.600000*%
G04 #@! TD*
G04 #@! TA.AperFunction,Conductor*
%ADD16C,0.127000*%
G04 #@! TD*
G04 APERTURE END LIST*
D10*
X167050000Y-56750000D03*
X157950000Y-56750000D03*
X167050000Y-52250000D03*
X157950000Y-52250000D03*
X167050000Y-145250000D03*
X157950000Y-145250000D03*
X167050000Y-140750000D03*
X157950000Y-140750000D03*
X152050000Y-145250000D03*
X142950000Y-145250000D03*
X152050000Y-140750000D03*
X142950000Y-140750000D03*
X137050000Y-145250000D03*
X127950000Y-145250000D03*
X137050000Y-140750000D03*
X127950000Y-140750000D03*
X137050000Y-56750000D03*
X127950000Y-56750000D03*
X137050000Y-52250000D03*
X127950000Y-52250000D03*
X137050000Y-104750000D03*
X127950000Y-104750000D03*
X137050000Y-100250000D03*
X127950000Y-100250000D03*
X144550000Y-91250000D03*
X135450000Y-91250000D03*
X144550000Y-86750000D03*
X135450000Y-86750000D03*
X160050000Y-91250000D03*
X150950000Y-91250000D03*
X160050000Y-86750000D03*
X150950000Y-86750000D03*
X152050000Y-104750000D03*
X142950000Y-104750000D03*
X152050000Y-100250000D03*
X142950000Y-100250000D03*
X167050000Y-131750000D03*
X157950000Y-131750000D03*
X167050000Y-127250000D03*
X157950000Y-127250000D03*
X167050000Y-104750000D03*
X157950000Y-104750000D03*
X167050000Y-100250000D03*
X157950000Y-100250000D03*
X137050000Y-70250000D03*
X127950000Y-70250000D03*
X137050000Y-65750000D03*
X127950000Y-65750000D03*
X167050000Y-118250000D03*
X157950000Y-118250000D03*
X167050000Y-113750000D03*
X157950000Y-113750000D03*
X152050000Y-131750000D03*
X142950000Y-131750000D03*
X152050000Y-127250000D03*
X142950000Y-127250000D03*
X152050000Y-118250000D03*
X142950000Y-118250000D03*
X152050000Y-113750000D03*
X142950000Y-113750000D03*
X137050000Y-131750000D03*
X127950000Y-131750000D03*
X137050000Y-127250000D03*
X127950000Y-127250000D03*
X137050000Y-118250000D03*
X127950000Y-118250000D03*
X137050000Y-113750000D03*
X127950000Y-113750000D03*
X167050000Y-70250000D03*
X157950000Y-70250000D03*
X167050000Y-65750000D03*
X157950000Y-65750000D03*
X152050000Y-70250000D03*
X142950000Y-70250000D03*
X152050000Y-65750000D03*
X142950000Y-65750000D03*
D11*
X164750000Y-90290000D03*
D12*
X164750000Y-87750000D03*
X130250000Y-92830000D03*
D11*
X130250000Y-90290000D03*
X130250000Y-87750000D03*
X130250000Y-85210000D03*
D13*
X148750000Y-56500000D03*
D14*
X146210000Y-56500000D03*
X148790000Y-52500000D03*
D13*
X146250000Y-52500000D03*
D15*
X134999996Y-81250000D03*
X135809499Y-67440501D03*
X138500000Y-64000000D03*
X138500000Y-63250000D03*
X129250000Y-81250000D03*
X128735925Y-80735925D03*
X128205913Y-80238297D03*
X127702058Y-79714201D03*
X127194823Y-79193377D03*
X126690784Y-78669459D03*
X137771087Y-75271087D03*
X137750000Y-80750000D03*
D16*
X137050000Y-56750000D02*
X137890501Y-57590501D01*
X137890501Y-57590501D02*
X157109499Y-57590501D01*
X157109499Y-57590501D02*
X157950000Y-56750000D01*
X134999996Y-75207094D02*
X134999996Y-81250000D01*
X127950000Y-56750000D02*
X126709499Y-57990501D01*
X126709499Y-57990501D02*
X126709499Y-66916597D01*
X126709499Y-66916597D02*
X134999996Y-75207094D01*
X157950000Y-56750000D02*
X167050000Y-56750000D01*
X127950000Y-65750000D02*
X127950000Y-65550000D01*
X137050000Y-140750000D02*
X137250000Y-140750000D01*
X135809499Y-128490501D02*
X137050000Y-127250000D01*
X135809499Y-139509499D02*
X135809499Y-128490501D01*
X137050000Y-140750000D02*
X135809499Y-139509499D01*
X136690501Y-87990501D02*
X136690501Y-99890501D01*
X136690501Y-99890501D02*
X137050000Y-100250000D01*
X135450000Y-86750000D02*
X136690501Y-87990501D01*
X135809499Y-112509499D02*
X137050000Y-113750000D01*
X135809499Y-101490501D02*
X135809499Y-112509499D01*
X137050000Y-100250000D02*
X135809499Y-101490501D01*
X135809499Y-126009499D02*
X137050000Y-127250000D01*
X135809499Y-114990501D02*
X135809499Y-126009499D01*
X137050000Y-113750000D02*
X135809499Y-114990501D01*
X137050000Y-100250000D02*
X127950000Y-100250000D01*
X127950000Y-113750000D02*
X137050000Y-113750000D01*
X127950000Y-127250000D02*
X137050000Y-127250000D01*
X137050000Y-140750000D02*
X127950000Y-140750000D01*
X135450000Y-86750000D02*
X135809499Y-86390501D01*
X137050000Y-65750000D02*
X135809499Y-64509499D01*
X135809499Y-53490501D02*
X137050000Y-52250000D01*
X135809499Y-64509499D02*
X135809499Y-53490501D01*
X135450000Y-86750000D02*
X144550000Y-86750000D01*
X137050000Y-66200000D02*
X135809499Y-67440501D01*
X137050000Y-65750000D02*
X137050000Y-66200000D01*
X135809499Y-86390501D02*
X135809499Y-67440501D01*
X127950000Y-52250000D02*
X137050000Y-52250000D01*
X127950000Y-65750000D02*
X137050000Y-65750000D01*
X129190501Y-128490501D02*
X127950000Y-127250000D01*
X129190501Y-132602401D02*
X129190501Y-128490501D01*
X127950000Y-133842902D02*
X129190501Y-132602401D01*
X127950000Y-140750000D02*
X127950000Y-133842902D01*
X129190501Y-101490501D02*
X127950000Y-100250000D01*
X129190501Y-112509499D02*
X129190501Y-101490501D01*
X127950000Y-113750000D02*
X129190501Y-112509499D01*
X129190501Y-114990501D02*
X127950000Y-113750000D01*
X129190501Y-126009499D02*
X129190501Y-114990501D01*
X127950000Y-127250000D02*
X129190501Y-126009499D01*
X129190501Y-53490501D02*
X127950000Y-52250000D01*
X129190501Y-57602401D02*
X129190501Y-53490501D01*
X127950000Y-58842902D02*
X129190501Y-57602401D01*
X127950000Y-65750000D02*
X127950000Y-58842902D01*
X150809499Y-128490501D02*
X152050000Y-127250000D01*
X150809499Y-139509499D02*
X150809499Y-128490501D01*
X152050000Y-140750000D02*
X150809499Y-139509499D01*
X150809499Y-114990501D02*
X152050000Y-113750000D01*
X150809499Y-126009499D02*
X150809499Y-114990501D01*
X152050000Y-127250000D02*
X150809499Y-126009499D01*
X150809499Y-101490501D02*
X152050000Y-100250000D01*
X150809499Y-112509499D02*
X150809499Y-101490501D01*
X152050000Y-113750000D02*
X150809499Y-112509499D01*
X152190501Y-87990501D02*
X150950000Y-86750000D01*
X152190501Y-100109499D02*
X152190501Y-87990501D01*
X152050000Y-100250000D02*
X152190501Y-100109499D01*
X142950000Y-113750000D02*
X152050000Y-113750000D01*
X142950000Y-100250000D02*
X152050000Y-100250000D01*
X142950000Y-127250000D02*
X152050000Y-127250000D01*
X152050000Y-140750000D02*
X142950000Y-140750000D01*
X150809499Y-66990501D02*
X152050000Y-65750000D01*
X150809499Y-86609499D02*
X150809499Y-66990501D01*
X150950000Y-86750000D02*
X150809499Y-86609499D01*
X142950000Y-65750000D02*
X152050000Y-65750000D01*
X150950000Y-86750000D02*
X160050000Y-86750000D01*
X141250000Y-64000000D02*
X138500000Y-64000000D01*
X142950000Y-65700000D02*
X141250000Y-64000000D01*
X142950000Y-65750000D02*
X142950000Y-65700000D01*
X144190501Y-128490501D02*
X142950000Y-127250000D01*
X144190501Y-139509499D02*
X144190501Y-128490501D01*
X142950000Y-140750000D02*
X144190501Y-139509499D01*
X144190501Y-126009499D02*
X144190501Y-114990501D01*
X144190501Y-114990501D02*
X142950000Y-113750000D01*
X142950000Y-127250000D02*
X144190501Y-126009499D01*
X144190501Y-101490501D02*
X142950000Y-100250000D01*
X144190501Y-112509499D02*
X144190501Y-101490501D01*
X142950000Y-113750000D02*
X144190501Y-112509499D01*
X168290501Y-128490501D02*
X167050000Y-127250000D01*
X168290501Y-139509499D02*
X168290501Y-128490501D01*
X167050000Y-140750000D02*
X168290501Y-139509499D01*
X168290501Y-126009499D02*
X168290501Y-114990501D01*
X168290501Y-114990501D02*
X167050000Y-113750000D01*
X167050000Y-127250000D02*
X168290501Y-126009499D01*
X168290501Y-101490501D02*
X167050000Y-100250000D01*
X168290501Y-112509499D02*
X168290501Y-101490501D01*
X167050000Y-113750000D02*
X168290501Y-112509499D01*
X157950000Y-113750000D02*
X167050000Y-113750000D01*
X157950000Y-100250000D02*
X167050000Y-100250000D01*
X157950000Y-127250000D02*
X167050000Y-127250000D01*
X167050000Y-140750000D02*
X157950000Y-140750000D01*
X168290501Y-66990501D02*
X167050000Y-65750000D01*
X168290501Y-99009499D02*
X168290501Y-66990501D01*
X167050000Y-100250000D02*
X168290501Y-99009499D01*
X168290501Y-53490501D02*
X167050000Y-52250000D01*
X168290501Y-64509499D02*
X168290501Y-53490501D01*
X167050000Y-65750000D02*
X168290501Y-64509499D01*
X157950000Y-52250000D02*
X167050000Y-52250000D01*
X157950000Y-65750000D02*
X167050000Y-65750000D01*
X156277000Y-63250000D02*
X138500000Y-63250000D01*
X157950000Y-64923000D02*
X156277000Y-63250000D01*
X157950000Y-65750000D02*
X157950000Y-64923000D01*
X137050000Y-70250000D02*
X142950000Y-70250000D01*
X152050000Y-70250000D02*
X157950000Y-70250000D01*
X157950000Y-70250000D02*
X167050000Y-70250000D01*
X129250000Y-71750000D02*
X129250000Y-81250000D01*
X129250000Y-71550000D02*
X129250000Y-71750000D01*
X127950000Y-70250000D02*
X129250000Y-71550000D01*
X150950000Y-91250000D02*
X144550000Y-91250000D01*
X135450000Y-91250000D02*
X132000000Y-87800000D01*
X128735925Y-81650699D02*
X128735925Y-80735925D01*
X132000000Y-84914774D02*
X128735925Y-81650699D01*
X132000000Y-87800000D02*
X132000000Y-84914774D01*
X157950000Y-104750000D02*
X152050000Y-104750000D01*
X142950000Y-104750000D02*
X137050000Y-104750000D01*
X126709499Y-81734711D02*
X128205913Y-80238297D01*
X127950000Y-104750000D02*
X126709499Y-103509499D01*
X126709499Y-103509499D02*
X126709499Y-81734711D01*
X157950000Y-104750000D02*
X167050000Y-104750000D01*
X137050000Y-118250000D02*
X142950000Y-118250000D01*
X152050000Y-118250000D02*
X157950000Y-118250000D01*
X126455492Y-116755492D02*
X126455492Y-80960767D01*
X127950000Y-118250000D02*
X126455492Y-116755492D01*
X126455492Y-80960767D02*
X127702058Y-79714201D01*
X157950000Y-118250000D02*
X167050000Y-118250000D01*
X157950000Y-131750000D02*
X152050000Y-131750000D01*
X142950000Y-131750000D02*
X137050000Y-131750000D01*
X127950000Y-131750000D02*
X126201481Y-130001481D01*
X126201481Y-80186719D02*
X127194823Y-79193377D01*
X126201481Y-130001481D02*
X126201481Y-80186719D01*
X157950000Y-131750000D02*
X167050000Y-131750000D01*
X137050000Y-145250000D02*
X142950000Y-145250000D01*
X152050000Y-145250000D02*
X157950000Y-145250000D01*
X125943799Y-79416444D02*
X126690784Y-78669459D01*
X127950000Y-145250000D02*
X125943799Y-143243799D01*
X125943799Y-143243799D02*
X125943799Y-79416444D01*
X127950000Y-145250000D02*
X137050000Y-145250000D01*
X142950000Y-145250000D02*
X152050000Y-145250000D01*
X157950000Y-145250000D02*
X167050000Y-145250000D01*
X137771087Y-80728913D02*
X137750000Y-80750000D01*
X137771087Y-75271087D02*
X137771087Y-80728913D01*
M02*
