G04 #@! TF.GenerationSoftware,KiCad,Pcbnew,(5.1.9)-1*
G04 #@! TF.CreationDate,2021-05-10T16:50:12-05:00*
G04 #@! TF.ProjectId,mini-remote,6d696e69-2d72-4656-9d6f-74652e6b6963,1*
G04 #@! TF.SameCoordinates,Original*
G04 #@! TF.FileFunction,Copper,L2,Bot*
G04 #@! TF.FilePolarity,Positive*
%FSLAX46Y46*%
G04 Gerber Fmt 4.6, Leading zero omitted, Abs format (unit mm)*
G04 Created by KiCad (PCBNEW (5.1.9)-1) date 2021-05-10 16:50:12*
%MOMM*%
%LPD*%
G01*
G04 APERTURE LIST*
G04 #@! TA.AperFunction,EtchedComponent*
%ADD10C,0.010000*%
G04 #@! TD*
G04 #@! TA.AperFunction,SMDPad,CuDef*
%ADD11R,2.100000X1.400000*%
G04 #@! TD*
G04 #@! TA.AperFunction,ComponentPad*
%ADD12O,1.700000X1.700000*%
G04 #@! TD*
G04 #@! TA.AperFunction,ComponentPad*
%ADD13C,1.700000*%
G04 #@! TD*
G04 #@! TA.AperFunction,SMDPad,CuDef*
%ADD14C,17.800000*%
G04 #@! TD*
G04 #@! TA.AperFunction,SMDPad,CuDef*
%ADD15R,2.500000X5.100000*%
G04 #@! TD*
G04 #@! TA.AperFunction,ComponentPad*
%ADD16R,1.800000X1.800000*%
G04 #@! TD*
G04 #@! TA.AperFunction,ComponentPad*
%ADD17C,1.800000*%
G04 #@! TD*
G04 #@! TA.AperFunction,SMDPad,CuDef*
%ADD18R,0.800000X0.900000*%
G04 #@! TD*
G04 #@! TA.AperFunction,ViaPad*
%ADD19C,0.600000*%
G04 #@! TD*
G04 #@! TA.AperFunction,Conductor*
%ADD20C,0.127000*%
G04 #@! TD*
G04 #@! TA.AperFunction,Conductor*
%ADD21C,0.254000*%
G04 #@! TD*
G04 #@! TA.AperFunction,Conductor*
%ADD22C,0.152400*%
G04 #@! TD*
G04 APERTURE END LIST*
D10*
G36*
X137500000Y-143250000D02*
G01*
X157500000Y-143250000D01*
X157500000Y-133916667D01*
X154833333Y-133916667D01*
X154833333Y-140583333D01*
X153500000Y-140583333D01*
X153500000Y-135250000D01*
X149500000Y-135250000D01*
X149500000Y-136583333D01*
X152166667Y-136583333D01*
X152166667Y-137916667D01*
X150833333Y-137916667D01*
X150833333Y-139250000D01*
X149500000Y-139250000D01*
X149500000Y-140583333D01*
X148166667Y-140583333D01*
X148166667Y-139250000D01*
X149500000Y-139250000D01*
X149500000Y-137916667D01*
X148166667Y-137916667D01*
X146833333Y-137916667D01*
X146833333Y-140583333D01*
X142833333Y-140583333D01*
X142833333Y-139250000D01*
X145500000Y-139250000D01*
X145500000Y-137916667D01*
X146833333Y-137916667D01*
X148166667Y-137916667D01*
X148166667Y-133916667D01*
X146833333Y-133916667D01*
X146833333Y-135250000D01*
X145500000Y-135250000D01*
X145500000Y-136583333D01*
X144166667Y-136583333D01*
X144166667Y-137916667D01*
X142833333Y-137916667D01*
X142833333Y-139250000D01*
X141500000Y-139250000D01*
X141500000Y-140583333D01*
X140166667Y-140583333D01*
X140166667Y-141916667D01*
X138833333Y-141916667D01*
X138833333Y-140583333D01*
X140166667Y-140583333D01*
X140166667Y-139250000D01*
X141500000Y-139250000D01*
X141500000Y-137916667D01*
X140166667Y-137916667D01*
X140166667Y-133916667D01*
X146833333Y-133916667D01*
X148166667Y-133916667D01*
X154833333Y-133916667D01*
X157500000Y-133916667D01*
X157500000Y-125916667D01*
X154833333Y-125916667D01*
X154833333Y-129916667D01*
X149500000Y-129916667D01*
X149500000Y-131250000D01*
X154833333Y-131250000D01*
X154833333Y-132583333D01*
X148166667Y-132583333D01*
X148166667Y-128583333D01*
X153500000Y-128583333D01*
X153500000Y-127250000D01*
X148166667Y-127250000D01*
X148166667Y-125916667D01*
X146833333Y-125916667D01*
X146833333Y-132583333D01*
X145500000Y-132583333D01*
X145500000Y-127250000D01*
X144166667Y-127250000D01*
X144166667Y-132583333D01*
X142833333Y-132583333D01*
X142833333Y-127250000D01*
X141500000Y-127250000D01*
X141500000Y-132583333D01*
X140166667Y-132583333D01*
X140166667Y-125916667D01*
X146833333Y-125916667D01*
X148166667Y-125916667D01*
X154833333Y-125916667D01*
X157500000Y-125916667D01*
X157500000Y-123250000D01*
X137500000Y-123250000D01*
X137500000Y-143250000D01*
G37*
X137500000Y-143250000D02*
X157500000Y-143250000D01*
X157500000Y-133916667D01*
X154833333Y-133916667D01*
X154833333Y-140583333D01*
X153500000Y-140583333D01*
X153500000Y-135250000D01*
X149500000Y-135250000D01*
X149500000Y-136583333D01*
X152166667Y-136583333D01*
X152166667Y-137916667D01*
X150833333Y-137916667D01*
X150833333Y-139250000D01*
X149500000Y-139250000D01*
X149500000Y-140583333D01*
X148166667Y-140583333D01*
X148166667Y-139250000D01*
X149500000Y-139250000D01*
X149500000Y-137916667D01*
X148166667Y-137916667D01*
X146833333Y-137916667D01*
X146833333Y-140583333D01*
X142833333Y-140583333D01*
X142833333Y-139250000D01*
X145500000Y-139250000D01*
X145500000Y-137916667D01*
X146833333Y-137916667D01*
X148166667Y-137916667D01*
X148166667Y-133916667D01*
X146833333Y-133916667D01*
X146833333Y-135250000D01*
X145500000Y-135250000D01*
X145500000Y-136583333D01*
X144166667Y-136583333D01*
X144166667Y-137916667D01*
X142833333Y-137916667D01*
X142833333Y-139250000D01*
X141500000Y-139250000D01*
X141500000Y-140583333D01*
X140166667Y-140583333D01*
X140166667Y-141916667D01*
X138833333Y-141916667D01*
X138833333Y-140583333D01*
X140166667Y-140583333D01*
X140166667Y-139250000D01*
X141500000Y-139250000D01*
X141500000Y-137916667D01*
X140166667Y-137916667D01*
X140166667Y-133916667D01*
X146833333Y-133916667D01*
X148166667Y-133916667D01*
X154833333Y-133916667D01*
X157500000Y-133916667D01*
X157500000Y-125916667D01*
X154833333Y-125916667D01*
X154833333Y-129916667D01*
X149500000Y-129916667D01*
X149500000Y-131250000D01*
X154833333Y-131250000D01*
X154833333Y-132583333D01*
X148166667Y-132583333D01*
X148166667Y-128583333D01*
X153500000Y-128583333D01*
X153500000Y-127250000D01*
X148166667Y-127250000D01*
X148166667Y-125916667D01*
X146833333Y-125916667D01*
X146833333Y-132583333D01*
X145500000Y-132583333D01*
X145500000Y-127250000D01*
X144166667Y-127250000D01*
X144166667Y-132583333D01*
X142833333Y-132583333D01*
X142833333Y-127250000D01*
X141500000Y-127250000D01*
X141500000Y-132583333D01*
X140166667Y-132583333D01*
X140166667Y-125916667D01*
X146833333Y-125916667D01*
X148166667Y-125916667D01*
X154833333Y-125916667D01*
X157500000Y-125916667D01*
X157500000Y-123250000D01*
X137500000Y-123250000D01*
X137500000Y-143250000D01*
G36*
X141500000Y-137916667D02*
G01*
X142833333Y-137916667D01*
X142833333Y-136583333D01*
X144166667Y-136583333D01*
X144166667Y-135250000D01*
X141500000Y-135250000D01*
X141500000Y-137916667D01*
G37*
X141500000Y-137916667D02*
X142833333Y-137916667D01*
X142833333Y-136583333D01*
X144166667Y-136583333D01*
X144166667Y-135250000D01*
X141500000Y-135250000D01*
X141500000Y-137916667D01*
D11*
X152050000Y-75000000D03*
X142950000Y-75000000D03*
X152050000Y-79500000D03*
X142950000Y-79500000D03*
G04 #@! TA.AperFunction,SMDPad,CuDef*
G36*
G01*
X146187500Y-61549999D02*
X146187500Y-62450001D01*
G75*
G02*
X145937501Y-62700000I-249999J0D01*
G01*
X145412499Y-62700000D01*
G75*
G02*
X145162500Y-62450001I0J249999D01*
G01*
X145162500Y-61549999D01*
G75*
G02*
X145412499Y-61300000I249999J0D01*
G01*
X145937501Y-61300000D01*
G75*
G02*
X146187500Y-61549999I0J-249999D01*
G01*
G37*
G04 #@! TD.AperFunction*
G04 #@! TA.AperFunction,SMDPad,CuDef*
G36*
G01*
X148012500Y-61549999D02*
X148012500Y-62450001D01*
G75*
G02*
X147762501Y-62700000I-249999J0D01*
G01*
X147237499Y-62700000D01*
G75*
G02*
X146987500Y-62450001I0J249999D01*
G01*
X146987500Y-61549999D01*
G75*
G02*
X147237499Y-61300000I249999J0D01*
G01*
X147762501Y-61300000D01*
G75*
G02*
X148012500Y-61549999I0J-249999D01*
G01*
G37*
G04 #@! TD.AperFunction*
D12*
X164750000Y-90290000D03*
D13*
X164750000Y-87750000D03*
X130250000Y-92830000D03*
D12*
X130250000Y-90290000D03*
X130250000Y-87750000D03*
X130250000Y-85210000D03*
D14*
X147500000Y-110000000D03*
D15*
X158950000Y-110000000D03*
X136050000Y-110000000D03*
D16*
X148750000Y-56500000D03*
D17*
X146210000Y-56500000D03*
G04 #@! TA.AperFunction,SMDPad,CuDef*
G36*
G01*
X152049999Y-53987500D02*
X152950001Y-53987500D01*
G75*
G02*
X153200000Y-54237499I0J-249999D01*
G01*
X153200000Y-54762501D01*
G75*
G02*
X152950001Y-55012500I-249999J0D01*
G01*
X152049999Y-55012500D01*
G75*
G02*
X151800000Y-54762501I0J249999D01*
G01*
X151800000Y-54237499D01*
G75*
G02*
X152049999Y-53987500I249999J0D01*
G01*
G37*
G04 #@! TD.AperFunction*
G04 #@! TA.AperFunction,SMDPad,CuDef*
G36*
G01*
X152049999Y-52162500D02*
X152950001Y-52162500D01*
G75*
G02*
X153200000Y-52412499I0J-249999D01*
G01*
X153200000Y-52937501D01*
G75*
G02*
X152950001Y-53187500I-249999J0D01*
G01*
X152049999Y-53187500D01*
G75*
G02*
X151800000Y-52937501I0J249999D01*
G01*
X151800000Y-52412499D01*
G75*
G02*
X152049999Y-52162500I249999J0D01*
G01*
G37*
G04 #@! TD.AperFunction*
G04 #@! TA.AperFunction,SMDPad,CuDef*
G36*
G01*
X156700001Y-79837500D02*
X155799999Y-79837500D01*
G75*
G02*
X155550000Y-79587501I0J249999D01*
G01*
X155550000Y-79062499D01*
G75*
G02*
X155799999Y-78812500I249999J0D01*
G01*
X156700001Y-78812500D01*
G75*
G02*
X156950000Y-79062499I0J-249999D01*
G01*
X156950000Y-79587501D01*
G75*
G02*
X156700001Y-79837500I-249999J0D01*
G01*
G37*
G04 #@! TD.AperFunction*
G04 #@! TA.AperFunction,SMDPad,CuDef*
G36*
G01*
X156700001Y-78012500D02*
X155799999Y-78012500D01*
G75*
G02*
X155550000Y-77762501I0J249999D01*
G01*
X155550000Y-77237499D01*
G75*
G02*
X155799999Y-76987500I249999J0D01*
G01*
X156700001Y-76987500D01*
G75*
G02*
X156950000Y-77237499I0J-249999D01*
G01*
X156950000Y-77762501D01*
G75*
G02*
X156700001Y-78012500I-249999J0D01*
G01*
G37*
G04 #@! TD.AperFunction*
X148790000Y-52500000D03*
D16*
X146250000Y-52500000D03*
G04 #@! TA.AperFunction,SMDPad,CuDef*
G36*
G01*
X131375000Y-75475000D02*
X131375000Y-75675000D01*
G75*
G02*
X131275000Y-75775000I-100000J0D01*
G01*
X130000000Y-75775000D01*
G75*
G02*
X129900000Y-75675000I0J100000D01*
G01*
X129900000Y-75475000D01*
G75*
G02*
X130000000Y-75375000I100000J0D01*
G01*
X131275000Y-75375000D01*
G75*
G02*
X131375000Y-75475000I0J-100000D01*
G01*
G37*
G04 #@! TD.AperFunction*
G04 #@! TA.AperFunction,SMDPad,CuDef*
G36*
G01*
X131375000Y-76125000D02*
X131375000Y-76325000D01*
G75*
G02*
X131275000Y-76425000I-100000J0D01*
G01*
X130000000Y-76425000D01*
G75*
G02*
X129900000Y-76325000I0J100000D01*
G01*
X129900000Y-76125000D01*
G75*
G02*
X130000000Y-76025000I100000J0D01*
G01*
X131275000Y-76025000D01*
G75*
G02*
X131375000Y-76125000I0J-100000D01*
G01*
G37*
G04 #@! TD.AperFunction*
G04 #@! TA.AperFunction,SMDPad,CuDef*
G36*
G01*
X131375000Y-76775000D02*
X131375000Y-76975000D01*
G75*
G02*
X131275000Y-77075000I-100000J0D01*
G01*
X130000000Y-77075000D01*
G75*
G02*
X129900000Y-76975000I0J100000D01*
G01*
X129900000Y-76775000D01*
G75*
G02*
X130000000Y-76675000I100000J0D01*
G01*
X131275000Y-76675000D01*
G75*
G02*
X131375000Y-76775000I0J-100000D01*
G01*
G37*
G04 #@! TD.AperFunction*
G04 #@! TA.AperFunction,SMDPad,CuDef*
G36*
G01*
X131375000Y-77425000D02*
X131375000Y-77625000D01*
G75*
G02*
X131275000Y-77725000I-100000J0D01*
G01*
X130000000Y-77725000D01*
G75*
G02*
X129900000Y-77625000I0J100000D01*
G01*
X129900000Y-77425000D01*
G75*
G02*
X130000000Y-77325000I100000J0D01*
G01*
X131275000Y-77325000D01*
G75*
G02*
X131375000Y-77425000I0J-100000D01*
G01*
G37*
G04 #@! TD.AperFunction*
G04 #@! TA.AperFunction,SMDPad,CuDef*
G36*
G01*
X131375000Y-78075000D02*
X131375000Y-78275000D01*
G75*
G02*
X131275000Y-78375000I-100000J0D01*
G01*
X130000000Y-78375000D01*
G75*
G02*
X129900000Y-78275000I0J100000D01*
G01*
X129900000Y-78075000D01*
G75*
G02*
X130000000Y-77975000I100000J0D01*
G01*
X131275000Y-77975000D01*
G75*
G02*
X131375000Y-78075000I0J-100000D01*
G01*
G37*
G04 #@! TD.AperFunction*
G04 #@! TA.AperFunction,SMDPad,CuDef*
G36*
G01*
X131375000Y-78725000D02*
X131375000Y-78925000D01*
G75*
G02*
X131275000Y-79025000I-100000J0D01*
G01*
X130000000Y-79025000D01*
G75*
G02*
X129900000Y-78925000I0J100000D01*
G01*
X129900000Y-78725000D01*
G75*
G02*
X130000000Y-78625000I100000J0D01*
G01*
X131275000Y-78625000D01*
G75*
G02*
X131375000Y-78725000I0J-100000D01*
G01*
G37*
G04 #@! TD.AperFunction*
G04 #@! TA.AperFunction,SMDPad,CuDef*
G36*
G01*
X131375000Y-79375000D02*
X131375000Y-79575000D01*
G75*
G02*
X131275000Y-79675000I-100000J0D01*
G01*
X130000000Y-79675000D01*
G75*
G02*
X129900000Y-79575000I0J100000D01*
G01*
X129900000Y-79375000D01*
G75*
G02*
X130000000Y-79275000I100000J0D01*
G01*
X131275000Y-79275000D01*
G75*
G02*
X131375000Y-79375000I0J-100000D01*
G01*
G37*
G04 #@! TD.AperFunction*
G04 #@! TA.AperFunction,SMDPad,CuDef*
G36*
G01*
X131375000Y-80025000D02*
X131375000Y-80225000D01*
G75*
G02*
X131275000Y-80325000I-100000J0D01*
G01*
X130000000Y-80325000D01*
G75*
G02*
X129900000Y-80225000I0J100000D01*
G01*
X129900000Y-80025000D01*
G75*
G02*
X130000000Y-79925000I100000J0D01*
G01*
X131275000Y-79925000D01*
G75*
G02*
X131375000Y-80025000I0J-100000D01*
G01*
G37*
G04 #@! TD.AperFunction*
G04 #@! TA.AperFunction,SMDPad,CuDef*
G36*
G01*
X131375000Y-80675000D02*
X131375000Y-80875000D01*
G75*
G02*
X131275000Y-80975000I-100000J0D01*
G01*
X130000000Y-80975000D01*
G75*
G02*
X129900000Y-80875000I0J100000D01*
G01*
X129900000Y-80675000D01*
G75*
G02*
X130000000Y-80575000I100000J0D01*
G01*
X131275000Y-80575000D01*
G75*
G02*
X131375000Y-80675000I0J-100000D01*
G01*
G37*
G04 #@! TD.AperFunction*
G04 #@! TA.AperFunction,SMDPad,CuDef*
G36*
G01*
X131375000Y-81325000D02*
X131375000Y-81525000D01*
G75*
G02*
X131275000Y-81625000I-100000J0D01*
G01*
X130000000Y-81625000D01*
G75*
G02*
X129900000Y-81525000I0J100000D01*
G01*
X129900000Y-81325000D01*
G75*
G02*
X130000000Y-81225000I100000J0D01*
G01*
X131275000Y-81225000D01*
G75*
G02*
X131375000Y-81325000I0J-100000D01*
G01*
G37*
G04 #@! TD.AperFunction*
G04 #@! TA.AperFunction,SMDPad,CuDef*
G36*
G01*
X137100000Y-81325000D02*
X137100000Y-81525000D01*
G75*
G02*
X137000000Y-81625000I-100000J0D01*
G01*
X135725000Y-81625000D01*
G75*
G02*
X135625000Y-81525000I0J100000D01*
G01*
X135625000Y-81325000D01*
G75*
G02*
X135725000Y-81225000I100000J0D01*
G01*
X137000000Y-81225000D01*
G75*
G02*
X137100000Y-81325000I0J-100000D01*
G01*
G37*
G04 #@! TD.AperFunction*
G04 #@! TA.AperFunction,SMDPad,CuDef*
G36*
G01*
X137100000Y-80675000D02*
X137100000Y-80875000D01*
G75*
G02*
X137000000Y-80975000I-100000J0D01*
G01*
X135725000Y-80975000D01*
G75*
G02*
X135625000Y-80875000I0J100000D01*
G01*
X135625000Y-80675000D01*
G75*
G02*
X135725000Y-80575000I100000J0D01*
G01*
X137000000Y-80575000D01*
G75*
G02*
X137100000Y-80675000I0J-100000D01*
G01*
G37*
G04 #@! TD.AperFunction*
G04 #@! TA.AperFunction,SMDPad,CuDef*
G36*
G01*
X137100000Y-80025000D02*
X137100000Y-80225000D01*
G75*
G02*
X137000000Y-80325000I-100000J0D01*
G01*
X135725000Y-80325000D01*
G75*
G02*
X135625000Y-80225000I0J100000D01*
G01*
X135625000Y-80025000D01*
G75*
G02*
X135725000Y-79925000I100000J0D01*
G01*
X137000000Y-79925000D01*
G75*
G02*
X137100000Y-80025000I0J-100000D01*
G01*
G37*
G04 #@! TD.AperFunction*
G04 #@! TA.AperFunction,SMDPad,CuDef*
G36*
G01*
X137100000Y-79375000D02*
X137100000Y-79575000D01*
G75*
G02*
X137000000Y-79675000I-100000J0D01*
G01*
X135725000Y-79675000D01*
G75*
G02*
X135625000Y-79575000I0J100000D01*
G01*
X135625000Y-79375000D01*
G75*
G02*
X135725000Y-79275000I100000J0D01*
G01*
X137000000Y-79275000D01*
G75*
G02*
X137100000Y-79375000I0J-100000D01*
G01*
G37*
G04 #@! TD.AperFunction*
G04 #@! TA.AperFunction,SMDPad,CuDef*
G36*
G01*
X137100000Y-78725000D02*
X137100000Y-78925000D01*
G75*
G02*
X137000000Y-79025000I-100000J0D01*
G01*
X135725000Y-79025000D01*
G75*
G02*
X135625000Y-78925000I0J100000D01*
G01*
X135625000Y-78725000D01*
G75*
G02*
X135725000Y-78625000I100000J0D01*
G01*
X137000000Y-78625000D01*
G75*
G02*
X137100000Y-78725000I0J-100000D01*
G01*
G37*
G04 #@! TD.AperFunction*
G04 #@! TA.AperFunction,SMDPad,CuDef*
G36*
G01*
X137100000Y-78075000D02*
X137100000Y-78275000D01*
G75*
G02*
X137000000Y-78375000I-100000J0D01*
G01*
X135725000Y-78375000D01*
G75*
G02*
X135625000Y-78275000I0J100000D01*
G01*
X135625000Y-78075000D01*
G75*
G02*
X135725000Y-77975000I100000J0D01*
G01*
X137000000Y-77975000D01*
G75*
G02*
X137100000Y-78075000I0J-100000D01*
G01*
G37*
G04 #@! TD.AperFunction*
G04 #@! TA.AperFunction,SMDPad,CuDef*
G36*
G01*
X137100000Y-77425000D02*
X137100000Y-77625000D01*
G75*
G02*
X137000000Y-77725000I-100000J0D01*
G01*
X135725000Y-77725000D01*
G75*
G02*
X135625000Y-77625000I0J100000D01*
G01*
X135625000Y-77425000D01*
G75*
G02*
X135725000Y-77325000I100000J0D01*
G01*
X137000000Y-77325000D01*
G75*
G02*
X137100000Y-77425000I0J-100000D01*
G01*
G37*
G04 #@! TD.AperFunction*
G04 #@! TA.AperFunction,SMDPad,CuDef*
G36*
G01*
X137100000Y-76775000D02*
X137100000Y-76975000D01*
G75*
G02*
X137000000Y-77075000I-100000J0D01*
G01*
X135725000Y-77075000D01*
G75*
G02*
X135625000Y-76975000I0J100000D01*
G01*
X135625000Y-76775000D01*
G75*
G02*
X135725000Y-76675000I100000J0D01*
G01*
X137000000Y-76675000D01*
G75*
G02*
X137100000Y-76775000I0J-100000D01*
G01*
G37*
G04 #@! TD.AperFunction*
G04 #@! TA.AperFunction,SMDPad,CuDef*
G36*
G01*
X137100000Y-76125000D02*
X137100000Y-76325000D01*
G75*
G02*
X137000000Y-76425000I-100000J0D01*
G01*
X135725000Y-76425000D01*
G75*
G02*
X135625000Y-76325000I0J100000D01*
G01*
X135625000Y-76125000D01*
G75*
G02*
X135725000Y-76025000I100000J0D01*
G01*
X137000000Y-76025000D01*
G75*
G02*
X137100000Y-76125000I0J-100000D01*
G01*
G37*
G04 #@! TD.AperFunction*
G04 #@! TA.AperFunction,SMDPad,CuDef*
G36*
G01*
X137100000Y-75475000D02*
X137100000Y-75675000D01*
G75*
G02*
X137000000Y-75775000I-100000J0D01*
G01*
X135725000Y-75775000D01*
G75*
G02*
X135625000Y-75675000I0J100000D01*
G01*
X135625000Y-75475000D01*
G75*
G02*
X135725000Y-75375000I100000J0D01*
G01*
X137000000Y-75375000D01*
G75*
G02*
X137100000Y-75475000I0J-100000D01*
G01*
G37*
G04 #@! TD.AperFunction*
G04 #@! TA.AperFunction,SMDPad,CuDef*
G36*
G01*
X142450001Y-56937500D02*
X141549999Y-56937500D01*
G75*
G02*
X141300000Y-56687501I0J249999D01*
G01*
X141300000Y-56162499D01*
G75*
G02*
X141549999Y-55912500I249999J0D01*
G01*
X142450001Y-55912500D01*
G75*
G02*
X142700000Y-56162499I0J-249999D01*
G01*
X142700000Y-56687501D01*
G75*
G02*
X142450001Y-56937500I-249999J0D01*
G01*
G37*
G04 #@! TD.AperFunction*
G04 #@! TA.AperFunction,SMDPad,CuDef*
G36*
G01*
X142450001Y-58762500D02*
X141549999Y-58762500D01*
G75*
G02*
X141300000Y-58512501I0J249999D01*
G01*
X141300000Y-57987499D01*
G75*
G02*
X141549999Y-57737500I249999J0D01*
G01*
X142450001Y-57737500D01*
G75*
G02*
X142700000Y-57987499I0J-249999D01*
G01*
X142700000Y-58512501D01*
G75*
G02*
X142450001Y-58762500I-249999J0D01*
G01*
G37*
G04 #@! TD.AperFunction*
D18*
X142000000Y-60250000D03*
X141050000Y-62250000D03*
X142950000Y-62250000D03*
G04 #@! TA.AperFunction,SMDPad,CuDef*
G36*
G01*
X156725000Y-75500000D02*
X155775000Y-75500000D01*
G75*
G02*
X155525000Y-75250000I0J250000D01*
G01*
X155525000Y-74750000D01*
G75*
G02*
X155775000Y-74500000I250000J0D01*
G01*
X156725000Y-74500000D01*
G75*
G02*
X156975000Y-74750000I0J-250000D01*
G01*
X156975000Y-75250000D01*
G75*
G02*
X156725000Y-75500000I-250000J0D01*
G01*
G37*
G04 #@! TD.AperFunction*
G04 #@! TA.AperFunction,SMDPad,CuDef*
G36*
G01*
X156725000Y-73600000D02*
X155775000Y-73600000D01*
G75*
G02*
X155525000Y-73350000I0J250000D01*
G01*
X155525000Y-72850000D01*
G75*
G02*
X155775000Y-72600000I250000J0D01*
G01*
X156725000Y-72600000D01*
G75*
G02*
X156975000Y-72850000I0J-250000D01*
G01*
X156975000Y-73350000D01*
G75*
G02*
X156725000Y-73600000I-250000J0D01*
G01*
G37*
G04 #@! TD.AperFunction*
G04 #@! TA.AperFunction,SMDPad,CuDef*
G36*
G01*
X139725000Y-80000000D02*
X138775000Y-80000000D01*
G75*
G02*
X138525000Y-79750000I0J250000D01*
G01*
X138525000Y-79250000D01*
G75*
G02*
X138775000Y-79000000I250000J0D01*
G01*
X139725000Y-79000000D01*
G75*
G02*
X139975000Y-79250000I0J-250000D01*
G01*
X139975000Y-79750000D01*
G75*
G02*
X139725000Y-80000000I-250000J0D01*
G01*
G37*
G04 #@! TD.AperFunction*
G04 #@! TA.AperFunction,SMDPad,CuDef*
G36*
G01*
X139725000Y-81900000D02*
X138775000Y-81900000D01*
G75*
G02*
X138525000Y-81650000I0J250000D01*
G01*
X138525000Y-81150000D01*
G75*
G02*
X138775000Y-80900000I250000J0D01*
G01*
X139725000Y-80900000D01*
G75*
G02*
X139975000Y-81150000I0J-250000D01*
G01*
X139975000Y-81650000D01*
G75*
G02*
X139725000Y-81900000I-250000J0D01*
G01*
G37*
G04 #@! TD.AperFunction*
D19*
X134999996Y-81250000D03*
X135809499Y-67440501D03*
X138500000Y-64000000D03*
X138500000Y-63250000D03*
X129250000Y-81250000D03*
X128735925Y-80735925D03*
X128205913Y-80238297D03*
X127702058Y-79714201D03*
X127194823Y-79193377D03*
X126690784Y-78669459D03*
X137771087Y-75271087D03*
X137750000Y-80750000D03*
D20*
X139225000Y-79475000D02*
X139250000Y-79500000D01*
X136362500Y-79475000D02*
X139225000Y-79475000D01*
X130250000Y-92830000D02*
X131500000Y-91580000D01*
X130749971Y-86500000D02*
X131500000Y-85749971D01*
X131500000Y-91580000D02*
X131500000Y-89750000D01*
X131500000Y-85749971D02*
X131500000Y-82999998D01*
X131500000Y-89750000D02*
X130750000Y-89000000D01*
X134374998Y-80125000D02*
X136362500Y-80125000D01*
X129750000Y-89000000D02*
X129004011Y-88254011D01*
X129004011Y-88254011D02*
X129004011Y-87245989D01*
X129004011Y-87245989D02*
X129750000Y-86500000D01*
X129750000Y-86500000D02*
X130749971Y-86500000D01*
X130750000Y-89000000D02*
X129750000Y-89000000D01*
X131500000Y-82999998D02*
X134374998Y-80125000D01*
X133991978Y-70008022D02*
X141050000Y-62950000D01*
X141050000Y-62950000D02*
X141050000Y-62250000D01*
X133991978Y-79430347D02*
X133991978Y-70008022D01*
X128495990Y-84926335D02*
X133991978Y-79430347D01*
X128495990Y-91075990D02*
X128495990Y-84926335D01*
X130250000Y-92830000D02*
X128495990Y-91075990D01*
X139125942Y-81400000D02*
X139250000Y-81400000D01*
X137850942Y-80125000D02*
X139125942Y-81400000D01*
X136362500Y-80125000D02*
X137850942Y-80125000D01*
X158950000Y-82025000D02*
X156250000Y-79325000D01*
X158950000Y-110000000D02*
X158950000Y-82025000D01*
X136050000Y-98630000D02*
X130250000Y-92830000D01*
X136050000Y-110000000D02*
X136050000Y-98630000D01*
X156250000Y-77500000D02*
X156250000Y-75000000D01*
X156250000Y-75000000D02*
X152050000Y-75000000D01*
X142950000Y-75000000D02*
X140425000Y-77525000D01*
X140425000Y-77525000D02*
X136362500Y-77525000D01*
X134500000Y-78650000D02*
X135625000Y-77525000D01*
X134500000Y-79640775D02*
X134500000Y-78650000D01*
X135625000Y-77525000D02*
X136362500Y-77525000D01*
X130250000Y-83890774D02*
X134500000Y-79640775D01*
X130250000Y-85210000D02*
X130250000Y-83890774D01*
X142075000Y-56500000D02*
X142000000Y-56425000D01*
X146210000Y-56500000D02*
X142075000Y-56500000D01*
X152325000Y-52500000D02*
X152500000Y-52675000D01*
X148790000Y-52500000D02*
X152325000Y-52500000D01*
X136860846Y-76875000D02*
X136362500Y-76875000D01*
X147500000Y-66235846D02*
X136860846Y-76875000D01*
X147500000Y-62000000D02*
X147500000Y-66235846D01*
X128750001Y-85031549D02*
X134245989Y-79535561D01*
X134245989Y-79535561D02*
X134245989Y-78254011D01*
X134245989Y-78254011D02*
X135625000Y-76875000D01*
X135625000Y-76875000D02*
X136362500Y-76875000D01*
X128750001Y-88790001D02*
X128750001Y-85031549D01*
X130250000Y-90290000D02*
X128750001Y-88790001D01*
X142000000Y-58250000D02*
X142000000Y-60250000D01*
X145425000Y-62250000D02*
X145675000Y-62000000D01*
X142950000Y-62250000D02*
X145425000Y-62250000D01*
X136362500Y-81425000D02*
X135174996Y-81425000D01*
X135174996Y-81425000D02*
X134999996Y-81250000D01*
X135809499Y-67440501D02*
X132258022Y-70991978D01*
X132258022Y-70991978D02*
X132258022Y-75991978D01*
X132258022Y-75991978D02*
X131375000Y-76875000D01*
X131375000Y-76875000D02*
X130637500Y-76875000D01*
X130637500Y-76225000D02*
X131375000Y-76225000D01*
X131375000Y-76225000D02*
X132004011Y-75595989D01*
X132004011Y-75595989D02*
X132004011Y-70495989D01*
X132004011Y-70495989D02*
X138500000Y-64000000D01*
X131750000Y-70000000D02*
X138500000Y-63250000D01*
X130637500Y-75575000D02*
X131175000Y-75575000D01*
X131750000Y-75000000D02*
X131750000Y-70000000D01*
X131175000Y-75575000D02*
X131750000Y-75000000D01*
X130637500Y-81425000D02*
X129425000Y-81425000D01*
X129425000Y-81425000D02*
X129250000Y-81250000D01*
X130598425Y-80735925D02*
X128735925Y-80735925D01*
X130637500Y-80775000D02*
X130598425Y-80735925D01*
X128319210Y-80125000D02*
X128205913Y-80238297D01*
X130637500Y-80125000D02*
X128319210Y-80125000D01*
X130637500Y-79475000D02*
X127941259Y-79475000D01*
X127941259Y-79475000D02*
X127702058Y-79714201D01*
X130637500Y-78825000D02*
X127563200Y-78825000D01*
X127563200Y-78825000D02*
X127194823Y-79193377D01*
X127185243Y-78175000D02*
X126690784Y-78669459D01*
X130637500Y-78175000D02*
X127185243Y-78175000D01*
X136387500Y-80750000D02*
X136362500Y-80775000D01*
X137750000Y-80750000D02*
X136387500Y-80750000D01*
X146500000Y-66542174D02*
X137771087Y-75271087D01*
X146500000Y-61500000D02*
X146500000Y-66542174D01*
X152500000Y-55500000D02*
X146500000Y-61500000D01*
X152500000Y-54500000D02*
X152500000Y-55500000D01*
X156760478Y-78500000D02*
X137425000Y-78500000D01*
X163709499Y-85449021D02*
X156760478Y-78500000D01*
X137425000Y-78500000D02*
X137100000Y-78825000D01*
X163709499Y-89249499D02*
X163709499Y-85449021D01*
X164750000Y-90290000D02*
X163709499Y-89249499D01*
X137100000Y-78825000D02*
X136362500Y-78825000D01*
X164750000Y-86130298D02*
X164750000Y-87750000D01*
X156865692Y-78245989D02*
X164750000Y-86130298D01*
X136433489Y-78245989D02*
X156865692Y-78245989D01*
X136362500Y-78175000D02*
X136433489Y-78245989D01*
D21*
X169373000Y-146873000D02*
X125627000Y-146873000D01*
X125627000Y-136079117D01*
X127765000Y-136079117D01*
X127765000Y-136420883D01*
X127831675Y-136756081D01*
X127962463Y-137071831D01*
X128152337Y-137355998D01*
X128394002Y-137597663D01*
X128678169Y-137787537D01*
X128993919Y-137918325D01*
X129329117Y-137985000D01*
X129670883Y-137985000D01*
X130006081Y-137918325D01*
X130321831Y-137787537D01*
X130605998Y-137597663D01*
X130847663Y-137355998D01*
X131037537Y-137071831D01*
X131168325Y-136756081D01*
X131235000Y-136420883D01*
X131235000Y-136079117D01*
X131168325Y-135743919D01*
X131037537Y-135428169D01*
X130847663Y-135144002D01*
X130605998Y-134902337D01*
X130321831Y-134712463D01*
X130006081Y-134581675D01*
X129670883Y-134515000D01*
X129329117Y-134515000D01*
X128993919Y-134581675D01*
X128678169Y-134712463D01*
X128394002Y-134902337D01*
X128152337Y-135144002D01*
X127962463Y-135428169D01*
X127831675Y-135743919D01*
X127765000Y-136079117D01*
X125627000Y-136079117D01*
X125627000Y-123250000D01*
X136860000Y-123250000D01*
X136860000Y-143250000D01*
X136865877Y-143309938D01*
X136871336Y-143369924D01*
X136871970Y-143372079D01*
X136872189Y-143374310D01*
X136889574Y-143431891D01*
X136906602Y-143489748D01*
X136907643Y-143491740D01*
X136908291Y-143493885D01*
X136936576Y-143547082D01*
X136964471Y-143600440D01*
X136965874Y-143602185D01*
X136966930Y-143604171D01*
X137005005Y-143650854D01*
X137042737Y-143697785D01*
X137044459Y-143699230D01*
X137045875Y-143700966D01*
X137092204Y-143739293D01*
X137138421Y-143778073D01*
X137140391Y-143779156D01*
X137142117Y-143780584D01*
X137195009Y-143809183D01*
X137247877Y-143838247D01*
X137250020Y-143838927D01*
X137251990Y-143839992D01*
X137309505Y-143857796D01*
X137366937Y-143876014D01*
X137369165Y-143876264D01*
X137371310Y-143876928D01*
X137431177Y-143883220D01*
X137491064Y-143889938D01*
X137495379Y-143889968D01*
X137495532Y-143889984D01*
X137495685Y-143889970D01*
X137500000Y-143890000D01*
X157500000Y-143890000D01*
X157559938Y-143884123D01*
X157619924Y-143878664D01*
X157622079Y-143878030D01*
X157624310Y-143877811D01*
X157681891Y-143860426D01*
X157739748Y-143843398D01*
X157741740Y-143842357D01*
X157743885Y-143841709D01*
X157797082Y-143813424D01*
X157850440Y-143785529D01*
X157852185Y-143784126D01*
X157854171Y-143783070D01*
X157900854Y-143744995D01*
X157947785Y-143707263D01*
X157949230Y-143705541D01*
X157950966Y-143704125D01*
X157989293Y-143657796D01*
X158028073Y-143611579D01*
X158029156Y-143609609D01*
X158030584Y-143607883D01*
X158059183Y-143554991D01*
X158088247Y-143502123D01*
X158088927Y-143499980D01*
X158089992Y-143498010D01*
X158107796Y-143440495D01*
X158126014Y-143383063D01*
X158126264Y-143380835D01*
X158126928Y-143378690D01*
X158133220Y-143318823D01*
X158139938Y-143258936D01*
X158139968Y-143254621D01*
X158139984Y-143254468D01*
X158139970Y-143254315D01*
X158140000Y-143250000D01*
X158140000Y-136079117D01*
X163765000Y-136079117D01*
X163765000Y-136420883D01*
X163831675Y-136756081D01*
X163962463Y-137071831D01*
X164152337Y-137355998D01*
X164394002Y-137597663D01*
X164678169Y-137787537D01*
X164993919Y-137918325D01*
X165329117Y-137985000D01*
X165670883Y-137985000D01*
X166006081Y-137918325D01*
X166321831Y-137787537D01*
X166605998Y-137597663D01*
X166847663Y-137355998D01*
X167037537Y-137071831D01*
X167168325Y-136756081D01*
X167235000Y-136420883D01*
X167235000Y-136079117D01*
X167168325Y-135743919D01*
X167037537Y-135428169D01*
X166847663Y-135144002D01*
X166605998Y-134902337D01*
X166321831Y-134712463D01*
X166006081Y-134581675D01*
X165670883Y-134515000D01*
X165329117Y-134515000D01*
X164993919Y-134581675D01*
X164678169Y-134712463D01*
X164394002Y-134902337D01*
X164152337Y-135144002D01*
X163962463Y-135428169D01*
X163831675Y-135743919D01*
X163765000Y-136079117D01*
X158140000Y-136079117D01*
X158140000Y-123250000D01*
X158134123Y-123190062D01*
X158128664Y-123130076D01*
X158128030Y-123127921D01*
X158127811Y-123125690D01*
X158110426Y-123068109D01*
X158093398Y-123010252D01*
X158092357Y-123008260D01*
X158091709Y-123006115D01*
X158063424Y-122952918D01*
X158035529Y-122899560D01*
X158034126Y-122897815D01*
X158033070Y-122895829D01*
X157994995Y-122849146D01*
X157957263Y-122802215D01*
X157955541Y-122800770D01*
X157954125Y-122799034D01*
X157907796Y-122760707D01*
X157861579Y-122721927D01*
X157859609Y-122720844D01*
X157857883Y-122719416D01*
X157804991Y-122690817D01*
X157752123Y-122661753D01*
X157749980Y-122661073D01*
X157748010Y-122660008D01*
X157690495Y-122642204D01*
X157633063Y-122623986D01*
X157630835Y-122623736D01*
X157628690Y-122623072D01*
X157568823Y-122616780D01*
X157508936Y-122610062D01*
X157504621Y-122610032D01*
X157504468Y-122610016D01*
X157504315Y-122610030D01*
X157500000Y-122610000D01*
X137500000Y-122610000D01*
X137440062Y-122615877D01*
X137380076Y-122621336D01*
X137377921Y-122621970D01*
X137375690Y-122622189D01*
X137318109Y-122639574D01*
X137260252Y-122656602D01*
X137258260Y-122657643D01*
X137256115Y-122658291D01*
X137202918Y-122686576D01*
X137149560Y-122714471D01*
X137147815Y-122715874D01*
X137145829Y-122716930D01*
X137099146Y-122755005D01*
X137052215Y-122792737D01*
X137050770Y-122794459D01*
X137049034Y-122795875D01*
X137010707Y-122842204D01*
X136971927Y-122888421D01*
X136970844Y-122890391D01*
X136969416Y-122892117D01*
X136940817Y-122945009D01*
X136911753Y-122997877D01*
X136911073Y-123000020D01*
X136910008Y-123001990D01*
X136892204Y-123059505D01*
X136873986Y-123116937D01*
X136873736Y-123119165D01*
X136873072Y-123121310D01*
X136866780Y-123181177D01*
X136860062Y-123241064D01*
X136860032Y-123245379D01*
X136860016Y-123245532D01*
X136860030Y-123245685D01*
X136860000Y-123250000D01*
X125627000Y-123250000D01*
X125627000Y-78577370D01*
X125755784Y-78577370D01*
X125755784Y-78761548D01*
X125791716Y-78942188D01*
X125862198Y-79112348D01*
X125964522Y-79265487D01*
X126094756Y-79395721D01*
X126247895Y-79498045D01*
X126321636Y-79528589D01*
X126366237Y-79636266D01*
X126468561Y-79789405D01*
X126598795Y-79919639D01*
X126751934Y-80021963D01*
X126831080Y-80054746D01*
X126873472Y-80157090D01*
X126975796Y-80310229D01*
X127106030Y-80440463D01*
X127259169Y-80542787D01*
X127332599Y-80573203D01*
X127377327Y-80681186D01*
X127479651Y-80834325D01*
X127609885Y-80964559D01*
X127763024Y-81066883D01*
X127881262Y-81115858D01*
X127907339Y-81178814D01*
X128009663Y-81331953D01*
X128139897Y-81462187D01*
X128293036Y-81564511D01*
X128383813Y-81602112D01*
X128421414Y-81692889D01*
X128523738Y-81846028D01*
X128653972Y-81976262D01*
X128807111Y-82078586D01*
X128977271Y-82149068D01*
X129157911Y-82185000D01*
X129342089Y-82185000D01*
X129522729Y-82149068D01*
X129575811Y-82127081D01*
X129589949Y-82138684D01*
X129717552Y-82206890D01*
X129856009Y-82248890D01*
X130000000Y-82263072D01*
X130171426Y-82263072D01*
X128026334Y-84408164D01*
X127999688Y-84430032D01*
X127977820Y-84456678D01*
X127977816Y-84456682D01*
X127912399Y-84536392D01*
X127847539Y-84657737D01*
X127847539Y-84657738D01*
X127807598Y-84789405D01*
X127800110Y-84865430D01*
X127794112Y-84926335D01*
X127797491Y-84960643D01*
X127797490Y-91041692D01*
X127794112Y-91075990D01*
X127797490Y-91110288D01*
X127797490Y-91110298D01*
X127807597Y-91212919D01*
X127837472Y-91311402D01*
X127847539Y-91344588D01*
X127912399Y-91465933D01*
X127977816Y-91545643D01*
X127977819Y-91545646D01*
X127999687Y-91572292D01*
X128026334Y-91594161D01*
X128824103Y-92391930D01*
X128822068Y-92396842D01*
X128765000Y-92683740D01*
X128765000Y-92976260D01*
X128822068Y-93263158D01*
X128934010Y-93533411D01*
X129096525Y-93776632D01*
X129303368Y-93983475D01*
X129546589Y-94145990D01*
X129816842Y-94257932D01*
X130103740Y-94315000D01*
X130396260Y-94315000D01*
X130683158Y-94257932D01*
X130688070Y-94255897D01*
X135351501Y-98919329D01*
X135351500Y-106811928D01*
X134800000Y-106811928D01*
X134675518Y-106824188D01*
X134555820Y-106860498D01*
X134445506Y-106919463D01*
X134348815Y-106998815D01*
X134269463Y-107095506D01*
X134210498Y-107205820D01*
X134174188Y-107325518D01*
X134161928Y-107450000D01*
X134161928Y-112550000D01*
X134174188Y-112674482D01*
X134210498Y-112794180D01*
X134269463Y-112904494D01*
X134348815Y-113001185D01*
X134445506Y-113080537D01*
X134555820Y-113139502D01*
X134675518Y-113175812D01*
X134800000Y-113188072D01*
X137300000Y-113188072D01*
X137424482Y-113175812D01*
X137544180Y-113139502D01*
X137654494Y-113080537D01*
X137751185Y-113001185D01*
X137830537Y-112904494D01*
X137889502Y-112794180D01*
X137925812Y-112674482D01*
X137938072Y-112550000D01*
X137938072Y-107450000D01*
X137925812Y-107325518D01*
X137889502Y-107205820D01*
X137830537Y-107095506D01*
X137751185Y-106998815D01*
X137654494Y-106919463D01*
X137544180Y-106860498D01*
X137424482Y-106824188D01*
X137300000Y-106811928D01*
X136748500Y-106811928D01*
X136748500Y-98664298D01*
X136751878Y-98630000D01*
X136748500Y-98595702D01*
X136748500Y-98595691D01*
X136738393Y-98493070D01*
X136698452Y-98361403D01*
X136633591Y-98240057D01*
X136568174Y-98160346D01*
X136568171Y-98160343D01*
X136546303Y-98133697D01*
X136519657Y-98111829D01*
X133986945Y-95579117D01*
X145765000Y-95579117D01*
X145765000Y-95920883D01*
X145831675Y-96256081D01*
X145962463Y-96571831D01*
X146152337Y-96855998D01*
X146394002Y-97097663D01*
X146678169Y-97287537D01*
X146993919Y-97418325D01*
X147329117Y-97485000D01*
X147670883Y-97485000D01*
X148006081Y-97418325D01*
X148321831Y-97287537D01*
X148605998Y-97097663D01*
X148847663Y-96855998D01*
X149037537Y-96571831D01*
X149168325Y-96256081D01*
X149235000Y-95920883D01*
X149235000Y-95579117D01*
X149168325Y-95243919D01*
X149037537Y-94928169D01*
X148847663Y-94644002D01*
X148605998Y-94402337D01*
X148321831Y-94212463D01*
X148006081Y-94081675D01*
X147670883Y-94015000D01*
X147329117Y-94015000D01*
X146993919Y-94081675D01*
X146678169Y-94212463D01*
X146394002Y-94402337D01*
X146152337Y-94644002D01*
X145962463Y-94928169D01*
X145831675Y-95243919D01*
X145765000Y-95579117D01*
X133986945Y-95579117D01*
X131675897Y-93268070D01*
X131677932Y-93263158D01*
X131735000Y-92976260D01*
X131735000Y-92683740D01*
X131677932Y-92396842D01*
X131675897Y-92391930D01*
X131969662Y-92098166D01*
X131996302Y-92076303D01*
X132018167Y-92049661D01*
X132018174Y-92049654D01*
X132083591Y-91969944D01*
X132148451Y-91848599D01*
X132169907Y-91777869D01*
X132188393Y-91716930D01*
X132198500Y-91614309D01*
X132198500Y-91614298D01*
X132201878Y-91580000D01*
X132198500Y-91545702D01*
X132198500Y-89784297D01*
X132201878Y-89749999D01*
X132198500Y-89715701D01*
X132198500Y-89715691D01*
X132188393Y-89613070D01*
X132148452Y-89481403D01*
X132146844Y-89478394D01*
X132083591Y-89360056D01*
X132018174Y-89280345D01*
X132018166Y-89280337D01*
X131996303Y-89253697D01*
X131969662Y-89231833D01*
X131407617Y-88669789D01*
X131521641Y-88516920D01*
X131646825Y-88254099D01*
X131691476Y-88106890D01*
X131570155Y-87877000D01*
X130377000Y-87877000D01*
X130377000Y-87897000D01*
X130123000Y-87897000D01*
X130123000Y-87877000D01*
X130103000Y-87877000D01*
X130103000Y-87623000D01*
X130123000Y-87623000D01*
X130123000Y-87603000D01*
X130377000Y-87603000D01*
X130377000Y-87623000D01*
X131570155Y-87623000D01*
X131691476Y-87393110D01*
X131646825Y-87245901D01*
X131521641Y-86983080D01*
X131407605Y-86830194D01*
X131969667Y-86268133D01*
X131996302Y-86246274D01*
X132018162Y-86219638D01*
X132018174Y-86219626D01*
X132083591Y-86139915D01*
X132148451Y-86018570D01*
X132156096Y-85993368D01*
X132188393Y-85886901D01*
X132198500Y-85784280D01*
X132198500Y-85784270D01*
X132201878Y-85749972D01*
X132198500Y-85715674D01*
X132198500Y-83289325D01*
X134078392Y-81409434D01*
X134100928Y-81522729D01*
X134171410Y-81692889D01*
X134273734Y-81846028D01*
X134403968Y-81976262D01*
X134557107Y-82078586D01*
X134727267Y-82149068D01*
X134907907Y-82185000D01*
X135092085Y-82185000D01*
X135272725Y-82149068D01*
X135309195Y-82133962D01*
X135314949Y-82138684D01*
X135442552Y-82206890D01*
X135581009Y-82248890D01*
X135725000Y-82263072D01*
X137000000Y-82263072D01*
X137143991Y-82248890D01*
X137282448Y-82206890D01*
X137410051Y-82138684D01*
X137521896Y-82046896D01*
X137613684Y-81935051D01*
X137681890Y-81807448D01*
X137719034Y-81685000D01*
X137842089Y-81685000D01*
X137889447Y-81675580D01*
X137903992Y-81823254D01*
X137954528Y-81989850D01*
X138036595Y-82143386D01*
X138147038Y-82277962D01*
X138281614Y-82388405D01*
X138435150Y-82470472D01*
X138601746Y-82521008D01*
X138775000Y-82538072D01*
X139725000Y-82538072D01*
X139898254Y-82521008D01*
X140064850Y-82470472D01*
X140218386Y-82388405D01*
X140352962Y-82277962D01*
X140463405Y-82143386D01*
X140545472Y-81989850D01*
X140596008Y-81823254D01*
X140613072Y-81650000D01*
X140613072Y-81150000D01*
X140596008Y-80976746D01*
X140545472Y-80810150D01*
X140463405Y-80656614D01*
X140352962Y-80522038D01*
X140346406Y-80516658D01*
X140426185Y-80451185D01*
X140505537Y-80354494D01*
X140564502Y-80244180D01*
X140577903Y-80200000D01*
X141261928Y-80200000D01*
X141274188Y-80324482D01*
X141310498Y-80444180D01*
X141369463Y-80554494D01*
X141448815Y-80651185D01*
X141545506Y-80730537D01*
X141655820Y-80789502D01*
X141775518Y-80825812D01*
X141900000Y-80838072D01*
X142664250Y-80835000D01*
X142823000Y-80676250D01*
X142823000Y-79627000D01*
X143077000Y-79627000D01*
X143077000Y-80676250D01*
X143235750Y-80835000D01*
X144000000Y-80838072D01*
X144124482Y-80825812D01*
X144244180Y-80789502D01*
X144354494Y-80730537D01*
X144451185Y-80651185D01*
X144530537Y-80554494D01*
X144589502Y-80444180D01*
X144625812Y-80324482D01*
X144638072Y-80200000D01*
X150361928Y-80200000D01*
X150374188Y-80324482D01*
X150410498Y-80444180D01*
X150469463Y-80554494D01*
X150548815Y-80651185D01*
X150645506Y-80730537D01*
X150755820Y-80789502D01*
X150875518Y-80825812D01*
X151000000Y-80838072D01*
X151764250Y-80835000D01*
X151923000Y-80676250D01*
X151923000Y-79627000D01*
X152177000Y-79627000D01*
X152177000Y-80676250D01*
X152335750Y-80835000D01*
X153100000Y-80838072D01*
X153224482Y-80825812D01*
X153344180Y-80789502D01*
X153454494Y-80730537D01*
X153551185Y-80651185D01*
X153630537Y-80554494D01*
X153689502Y-80444180D01*
X153725812Y-80324482D01*
X153738072Y-80200000D01*
X153735000Y-79785750D01*
X153576250Y-79627000D01*
X152177000Y-79627000D01*
X151923000Y-79627000D01*
X150523750Y-79627000D01*
X150365000Y-79785750D01*
X150361928Y-80200000D01*
X144638072Y-80200000D01*
X144635000Y-79785750D01*
X144476250Y-79627000D01*
X143077000Y-79627000D01*
X142823000Y-79627000D01*
X141423750Y-79627000D01*
X141265000Y-79785750D01*
X141261928Y-80200000D01*
X140577903Y-80200000D01*
X140600812Y-80124482D01*
X140613072Y-80000000D01*
X140610000Y-79785750D01*
X140451250Y-79627000D01*
X139377000Y-79627000D01*
X139377000Y-79647000D01*
X139123000Y-79647000D01*
X139123000Y-79627000D01*
X139103000Y-79627000D01*
X139103000Y-79373000D01*
X139123000Y-79373000D01*
X139123000Y-79353000D01*
X139377000Y-79353000D01*
X139377000Y-79373000D01*
X140451250Y-79373000D01*
X140610000Y-79214250D01*
X140610226Y-79198500D01*
X141264883Y-79198500D01*
X141265000Y-79214250D01*
X141423750Y-79373000D01*
X142823000Y-79373000D01*
X142823000Y-79353000D01*
X143077000Y-79353000D01*
X143077000Y-79373000D01*
X144476250Y-79373000D01*
X144635000Y-79214250D01*
X144635117Y-79198500D01*
X150364883Y-79198500D01*
X150365000Y-79214250D01*
X150523750Y-79373000D01*
X151923000Y-79373000D01*
X151923000Y-79353000D01*
X152177000Y-79353000D01*
X152177000Y-79373000D01*
X153576250Y-79373000D01*
X153735000Y-79214250D01*
X153735117Y-79198500D01*
X154911928Y-79198500D01*
X154911928Y-79587501D01*
X154928992Y-79760755D01*
X154979528Y-79927351D01*
X155061595Y-80080887D01*
X155172038Y-80215462D01*
X155306613Y-80325905D01*
X155460149Y-80407972D01*
X155626745Y-80458508D01*
X155799999Y-80475572D01*
X156412745Y-80475572D01*
X158251501Y-82314329D01*
X158251500Y-106811928D01*
X157700000Y-106811928D01*
X157575518Y-106824188D01*
X157455820Y-106860498D01*
X157345506Y-106919463D01*
X157248815Y-106998815D01*
X157169463Y-107095506D01*
X157110498Y-107205820D01*
X157074188Y-107325518D01*
X157061928Y-107450000D01*
X157061928Y-112550000D01*
X157074188Y-112674482D01*
X157110498Y-112794180D01*
X157169463Y-112904494D01*
X157248815Y-113001185D01*
X157345506Y-113080537D01*
X157455820Y-113139502D01*
X157575518Y-113175812D01*
X157700000Y-113188072D01*
X160200000Y-113188072D01*
X160324482Y-113175812D01*
X160444180Y-113139502D01*
X160554494Y-113080537D01*
X160651185Y-113001185D01*
X160730537Y-112904494D01*
X160789502Y-112794180D01*
X160825812Y-112674482D01*
X160838072Y-112550000D01*
X160838072Y-107450000D01*
X160825812Y-107325518D01*
X160789502Y-107205820D01*
X160730537Y-107095506D01*
X160651185Y-106998815D01*
X160554494Y-106919463D01*
X160444180Y-106860498D01*
X160324482Y-106824188D01*
X160200000Y-106811928D01*
X159648500Y-106811928D01*
X159648500Y-82375849D01*
X163011000Y-85738350D01*
X163010999Y-89215201D01*
X163007621Y-89249499D01*
X163010999Y-89283797D01*
X163010999Y-89283807D01*
X163021106Y-89386428D01*
X163061047Y-89518095D01*
X163061048Y-89518097D01*
X163125908Y-89639442D01*
X163191325Y-89719152D01*
X163191328Y-89719155D01*
X163213196Y-89745801D01*
X163239843Y-89767670D01*
X163324103Y-89851930D01*
X163322068Y-89856842D01*
X163265000Y-90143740D01*
X163265000Y-90436260D01*
X163322068Y-90723158D01*
X163434010Y-90993411D01*
X163596525Y-91236632D01*
X163803368Y-91443475D01*
X164046589Y-91605990D01*
X164316842Y-91717932D01*
X164603740Y-91775000D01*
X164896260Y-91775000D01*
X165183158Y-91717932D01*
X165453411Y-91605990D01*
X165696632Y-91443475D01*
X165903475Y-91236632D01*
X166065990Y-90993411D01*
X166177932Y-90723158D01*
X166235000Y-90436260D01*
X166235000Y-90143740D01*
X166177932Y-89856842D01*
X166065990Y-89586589D01*
X165903475Y-89343368D01*
X165696632Y-89136525D01*
X165522240Y-89020000D01*
X165696632Y-88903475D01*
X165903475Y-88696632D01*
X166065990Y-88453411D01*
X166177932Y-88183158D01*
X166235000Y-87896260D01*
X166235000Y-87603740D01*
X166177932Y-87316842D01*
X166065990Y-87046589D01*
X165903475Y-86803368D01*
X165696632Y-86596525D01*
X165453411Y-86434010D01*
X165448500Y-86431976D01*
X165448500Y-86164596D01*
X165451878Y-86130298D01*
X165448500Y-86096000D01*
X165448500Y-86095989D01*
X165438393Y-85993368D01*
X165398452Y-85861701D01*
X165366274Y-85801500D01*
X165333591Y-85740354D01*
X165268174Y-85660644D01*
X165268167Y-85660637D01*
X165246302Y-85633995D01*
X165219662Y-85612132D01*
X157564556Y-77957026D01*
X157571008Y-77935755D01*
X157588072Y-77762501D01*
X157588072Y-77237499D01*
X157571008Y-77064245D01*
X157520472Y-76897649D01*
X157438405Y-76744113D01*
X157327962Y-76609538D01*
X157193387Y-76499095D01*
X157039851Y-76417028D01*
X156948500Y-76389317D01*
X156948500Y-76105766D01*
X157064850Y-76070472D01*
X157218386Y-75988405D01*
X157352962Y-75877962D01*
X157463405Y-75743386D01*
X157545472Y-75589850D01*
X157596008Y-75423254D01*
X157613072Y-75250000D01*
X157613072Y-74750000D01*
X157596008Y-74576746D01*
X157545472Y-74410150D01*
X157463405Y-74256614D01*
X157352962Y-74122038D01*
X157346406Y-74116658D01*
X157426185Y-74051185D01*
X157505537Y-73954494D01*
X157564502Y-73844180D01*
X157600812Y-73724482D01*
X157613072Y-73600000D01*
X157610000Y-73385750D01*
X157451250Y-73227000D01*
X156377000Y-73227000D01*
X156377000Y-73247000D01*
X156123000Y-73247000D01*
X156123000Y-73227000D01*
X155048750Y-73227000D01*
X154890000Y-73385750D01*
X154886928Y-73600000D01*
X154899188Y-73724482D01*
X154935498Y-73844180D01*
X154994463Y-73954494D01*
X155073815Y-74051185D01*
X155153594Y-74116658D01*
X155147038Y-74122038D01*
X155036595Y-74256614D01*
X155012603Y-74301500D01*
X153738072Y-74301500D01*
X153738072Y-74300000D01*
X153725812Y-74175518D01*
X153689502Y-74055820D01*
X153630537Y-73945506D01*
X153551185Y-73848815D01*
X153454494Y-73769463D01*
X153344180Y-73710498D01*
X153224482Y-73674188D01*
X153100000Y-73661928D01*
X151000000Y-73661928D01*
X150875518Y-73674188D01*
X150755820Y-73710498D01*
X150645506Y-73769463D01*
X150548815Y-73848815D01*
X150469463Y-73945506D01*
X150410498Y-74055820D01*
X150374188Y-74175518D01*
X150361928Y-74300000D01*
X150361928Y-75700000D01*
X150374188Y-75824482D01*
X150410498Y-75944180D01*
X150469463Y-76054494D01*
X150548815Y-76151185D01*
X150645506Y-76230537D01*
X150755820Y-76289502D01*
X150875518Y-76325812D01*
X151000000Y-76338072D01*
X153100000Y-76338072D01*
X153224482Y-76325812D01*
X153344180Y-76289502D01*
X153454494Y-76230537D01*
X153551185Y-76151185D01*
X153630537Y-76054494D01*
X153689502Y-75944180D01*
X153725812Y-75824482D01*
X153738072Y-75700000D01*
X153738072Y-75698500D01*
X155012603Y-75698500D01*
X155036595Y-75743386D01*
X155147038Y-75877962D01*
X155281614Y-75988405D01*
X155435150Y-76070472D01*
X155551501Y-76105766D01*
X155551500Y-76389317D01*
X155460149Y-76417028D01*
X155306613Y-76499095D01*
X155172038Y-76609538D01*
X155061595Y-76744113D01*
X154979528Y-76897649D01*
X154928992Y-77064245D01*
X154911928Y-77237499D01*
X154911928Y-77547489D01*
X141390338Y-77547489D01*
X142599756Y-76338072D01*
X144000000Y-76338072D01*
X144124482Y-76325812D01*
X144244180Y-76289502D01*
X144354494Y-76230537D01*
X144451185Y-76151185D01*
X144530537Y-76054494D01*
X144589502Y-75944180D01*
X144625812Y-75824482D01*
X144638072Y-75700000D01*
X144638072Y-74300000D01*
X144625812Y-74175518D01*
X144589502Y-74055820D01*
X144530537Y-73945506D01*
X144451185Y-73848815D01*
X144354494Y-73769463D01*
X144244180Y-73710498D01*
X144124482Y-73674188D01*
X144000000Y-73661928D01*
X141900000Y-73661928D01*
X141775518Y-73674188D01*
X141655820Y-73710498D01*
X141545506Y-73769463D01*
X141448815Y-73848815D01*
X141369463Y-73945506D01*
X141310498Y-74055820D01*
X141274188Y-74175518D01*
X141261928Y-74300000D01*
X141261928Y-75700000D01*
X141261950Y-75700222D01*
X140135673Y-76826500D01*
X137897173Y-76826500D01*
X142123673Y-72600000D01*
X154886928Y-72600000D01*
X154890000Y-72814250D01*
X155048750Y-72973000D01*
X156123000Y-72973000D01*
X156123000Y-72123750D01*
X156377000Y-72123750D01*
X156377000Y-72973000D01*
X157451250Y-72973000D01*
X157610000Y-72814250D01*
X157613072Y-72600000D01*
X157600812Y-72475518D01*
X157564502Y-72355820D01*
X157505537Y-72245506D01*
X157426185Y-72148815D01*
X157329494Y-72069463D01*
X157219180Y-72010498D01*
X157099482Y-71974188D01*
X156975000Y-71961928D01*
X156535750Y-71965000D01*
X156377000Y-72123750D01*
X156123000Y-72123750D01*
X155964250Y-71965000D01*
X155525000Y-71961928D01*
X155400518Y-71974188D01*
X155280820Y-72010498D01*
X155170506Y-72069463D01*
X155073815Y-72148815D01*
X154994463Y-72245506D01*
X154935498Y-72355820D01*
X154899188Y-72475518D01*
X154886928Y-72600000D01*
X142123673Y-72600000D01*
X147969657Y-66754017D01*
X147996303Y-66732149D01*
X148018171Y-66705503D01*
X148018174Y-66705500D01*
X148083591Y-66625790D01*
X148148451Y-66504444D01*
X148148452Y-66504443D01*
X148188393Y-66372776D01*
X148198500Y-66270155D01*
X148198500Y-66270144D01*
X148201878Y-66235846D01*
X148198500Y-66201548D01*
X148198500Y-63219079D01*
X148255887Y-63188405D01*
X148390462Y-63077962D01*
X148500905Y-62943387D01*
X148582972Y-62789851D01*
X148633508Y-62623255D01*
X148650572Y-62450001D01*
X148650572Y-61549999D01*
X148633508Y-61376745D01*
X148582972Y-61210149D01*
X148512934Y-61079117D01*
X163765000Y-61079117D01*
X163765000Y-61420883D01*
X163831675Y-61756081D01*
X163962463Y-62071831D01*
X164152337Y-62355998D01*
X164394002Y-62597663D01*
X164678169Y-62787537D01*
X164993919Y-62918325D01*
X165329117Y-62985000D01*
X165670883Y-62985000D01*
X166006081Y-62918325D01*
X166321831Y-62787537D01*
X166605998Y-62597663D01*
X166847663Y-62355998D01*
X167037537Y-62071831D01*
X167168325Y-61756081D01*
X167235000Y-61420883D01*
X167235000Y-61079117D01*
X167168325Y-60743919D01*
X167037537Y-60428169D01*
X166847663Y-60144002D01*
X166605998Y-59902337D01*
X166321831Y-59712463D01*
X166006081Y-59581675D01*
X165670883Y-59515000D01*
X165329117Y-59515000D01*
X164993919Y-59581675D01*
X164678169Y-59712463D01*
X164394002Y-59902337D01*
X164152337Y-60144002D01*
X163962463Y-60428169D01*
X163831675Y-60743919D01*
X163765000Y-61079117D01*
X148512934Y-61079117D01*
X148500905Y-61056613D01*
X148390462Y-60922038D01*
X148255887Y-60811595D01*
X148203978Y-60783849D01*
X152969657Y-56018171D01*
X152996303Y-55996303D01*
X153018173Y-55969655D01*
X153083591Y-55889944D01*
X153148451Y-55768599D01*
X153148452Y-55768597D01*
X153188393Y-55636930D01*
X153190746Y-55613035D01*
X153289851Y-55582972D01*
X153443387Y-55500905D01*
X153577962Y-55390462D01*
X153688405Y-55255887D01*
X153770472Y-55102351D01*
X153821008Y-54935755D01*
X153838072Y-54762501D01*
X153838072Y-54237499D01*
X153821008Y-54064245D01*
X153770472Y-53897649D01*
X153688405Y-53744113D01*
X153577962Y-53609538D01*
X153551109Y-53587500D01*
X153577962Y-53565462D01*
X153688405Y-53430887D01*
X153770472Y-53277351D01*
X153821008Y-53110755D01*
X153838072Y-52937501D01*
X153838072Y-52412499D01*
X153821008Y-52239245D01*
X153770472Y-52072649D01*
X153688405Y-51919113D01*
X153577962Y-51784538D01*
X153443387Y-51674095D01*
X153289851Y-51592028D01*
X153123255Y-51541492D01*
X152950001Y-51524428D01*
X152049999Y-51524428D01*
X151876745Y-51541492D01*
X151710149Y-51592028D01*
X151556613Y-51674095D01*
X151422038Y-51784538D01*
X151408118Y-51801500D01*
X150162143Y-51801500D01*
X150150299Y-51772905D01*
X149982312Y-51521495D01*
X149768505Y-51307688D01*
X149517095Y-51139701D01*
X149237743Y-51023989D01*
X148941184Y-50965000D01*
X148638816Y-50965000D01*
X148342257Y-51023989D01*
X148062905Y-51139701D01*
X147811495Y-51307688D01*
X147745056Y-51374127D01*
X147739502Y-51355820D01*
X147680537Y-51245506D01*
X147601185Y-51148815D01*
X147504494Y-51069463D01*
X147394180Y-51010498D01*
X147274482Y-50974188D01*
X147150000Y-50961928D01*
X146535750Y-50965000D01*
X146377000Y-51123750D01*
X146377000Y-52373000D01*
X146397000Y-52373000D01*
X146397000Y-52627000D01*
X146377000Y-52627000D01*
X146377000Y-53876250D01*
X146535750Y-54035000D01*
X147150000Y-54038072D01*
X147274482Y-54025812D01*
X147394180Y-53989502D01*
X147504494Y-53930537D01*
X147601185Y-53851185D01*
X147680537Y-53754494D01*
X147739502Y-53644180D01*
X147745056Y-53625873D01*
X147811495Y-53692312D01*
X148062905Y-53860299D01*
X148342257Y-53976011D01*
X148638816Y-54035000D01*
X148941184Y-54035000D01*
X149237743Y-53976011D01*
X149517095Y-53860299D01*
X149768505Y-53692312D01*
X149982312Y-53478505D01*
X150150299Y-53227095D01*
X150162143Y-53198500D01*
X151205609Y-53198500D01*
X151229528Y-53277351D01*
X151311595Y-53430887D01*
X151422038Y-53565462D01*
X151448891Y-53587500D01*
X151422038Y-53609538D01*
X151311595Y-53744113D01*
X151229528Y-53897649D01*
X151178992Y-54064245D01*
X151161928Y-54237499D01*
X151161928Y-54762501D01*
X151178992Y-54935755D01*
X151229528Y-55102351D01*
X151311595Y-55255887D01*
X151422038Y-55390462D01*
X151531707Y-55480465D01*
X150255711Y-56756461D01*
X150126250Y-56627000D01*
X148877000Y-56627000D01*
X148877000Y-57876250D01*
X149006461Y-58005711D01*
X146280801Y-60731372D01*
X146277351Y-60729528D01*
X146110755Y-60678992D01*
X145937501Y-60661928D01*
X145412499Y-60661928D01*
X145239245Y-60678992D01*
X145072649Y-60729528D01*
X144919113Y-60811595D01*
X144784538Y-60922038D01*
X144674095Y-61056613D01*
X144592028Y-61210149D01*
X144541492Y-61376745D01*
X144524428Y-61549999D01*
X144524428Y-61551500D01*
X143937193Y-61551500D01*
X143880537Y-61445506D01*
X143801185Y-61348815D01*
X143704494Y-61269463D01*
X143594180Y-61210498D01*
X143474482Y-61174188D01*
X143350000Y-61161928D01*
X142838095Y-61161928D01*
X142851185Y-61151185D01*
X142930537Y-61054494D01*
X142989502Y-60944180D01*
X143025812Y-60824482D01*
X143038072Y-60700000D01*
X143038072Y-59800000D01*
X143025812Y-59675518D01*
X142989502Y-59555820D01*
X142930537Y-59445506D01*
X142851185Y-59348815D01*
X142815303Y-59319368D01*
X142943387Y-59250905D01*
X143077962Y-59140462D01*
X143188405Y-59005887D01*
X143270472Y-58852351D01*
X143321008Y-58685755D01*
X143338072Y-58512501D01*
X143338072Y-57987499D01*
X143321008Y-57814245D01*
X143270472Y-57647649D01*
X143188405Y-57494113D01*
X143077962Y-57359538D01*
X143051109Y-57337500D01*
X143077962Y-57315462D01*
X143173950Y-57198500D01*
X144837857Y-57198500D01*
X144849701Y-57227095D01*
X145017688Y-57478505D01*
X145231495Y-57692312D01*
X145482905Y-57860299D01*
X145762257Y-57976011D01*
X146058816Y-58035000D01*
X146361184Y-58035000D01*
X146657743Y-57976011D01*
X146937095Y-57860299D01*
X147188505Y-57692312D01*
X147254944Y-57625873D01*
X147260498Y-57644180D01*
X147319463Y-57754494D01*
X147398815Y-57851185D01*
X147495506Y-57930537D01*
X147605820Y-57989502D01*
X147725518Y-58025812D01*
X147850000Y-58038072D01*
X148464250Y-58035000D01*
X148623000Y-57876250D01*
X148623000Y-56627000D01*
X148603000Y-56627000D01*
X148603000Y-56373000D01*
X148623000Y-56373000D01*
X148623000Y-55123750D01*
X148877000Y-55123750D01*
X148877000Y-56373000D01*
X150126250Y-56373000D01*
X150285000Y-56214250D01*
X150288072Y-55600000D01*
X150275812Y-55475518D01*
X150239502Y-55355820D01*
X150180537Y-55245506D01*
X150101185Y-55148815D01*
X150004494Y-55069463D01*
X149894180Y-55010498D01*
X149774482Y-54974188D01*
X149650000Y-54961928D01*
X149035750Y-54965000D01*
X148877000Y-55123750D01*
X148623000Y-55123750D01*
X148464250Y-54965000D01*
X147850000Y-54961928D01*
X147725518Y-54974188D01*
X147605820Y-55010498D01*
X147495506Y-55069463D01*
X147398815Y-55148815D01*
X147319463Y-55245506D01*
X147260498Y-55355820D01*
X147254944Y-55374127D01*
X147188505Y-55307688D01*
X146937095Y-55139701D01*
X146657743Y-55023989D01*
X146361184Y-54965000D01*
X146058816Y-54965000D01*
X145762257Y-55023989D01*
X145482905Y-55139701D01*
X145231495Y-55307688D01*
X145017688Y-55521495D01*
X144849701Y-55772905D01*
X144837857Y-55801500D01*
X143259168Y-55801500D01*
X143188405Y-55669113D01*
X143077962Y-55534538D01*
X142943387Y-55424095D01*
X142789851Y-55342028D01*
X142623255Y-55291492D01*
X142450001Y-55274428D01*
X141549999Y-55274428D01*
X141376745Y-55291492D01*
X141210149Y-55342028D01*
X141056613Y-55424095D01*
X140922038Y-55534538D01*
X140811595Y-55669113D01*
X140729528Y-55822649D01*
X140678992Y-55989245D01*
X140661928Y-56162499D01*
X140661928Y-56687501D01*
X140678992Y-56860755D01*
X140729528Y-57027351D01*
X140811595Y-57180887D01*
X140922038Y-57315462D01*
X140948891Y-57337500D01*
X140922038Y-57359538D01*
X140811595Y-57494113D01*
X140729528Y-57647649D01*
X140678992Y-57814245D01*
X140661928Y-57987499D01*
X140661928Y-58512501D01*
X140678992Y-58685755D01*
X140729528Y-58852351D01*
X140811595Y-59005887D01*
X140922038Y-59140462D01*
X141056613Y-59250905D01*
X141184697Y-59319368D01*
X141148815Y-59348815D01*
X141069463Y-59445506D01*
X141010498Y-59555820D01*
X140974188Y-59675518D01*
X140961928Y-59800000D01*
X140961928Y-60700000D01*
X140974188Y-60824482D01*
X141010498Y-60944180D01*
X141069463Y-61054494D01*
X141148815Y-61151185D01*
X141161905Y-61161928D01*
X140650000Y-61161928D01*
X140525518Y-61174188D01*
X140405820Y-61210498D01*
X140295506Y-61269463D01*
X140198815Y-61348815D01*
X140119463Y-61445506D01*
X140060498Y-61555820D01*
X140024188Y-61675518D01*
X140011928Y-61800000D01*
X140011928Y-62700000D01*
X140024188Y-62824482D01*
X140060498Y-62944180D01*
X140063108Y-62949064D01*
X139365630Y-63646543D01*
X139356706Y-63625000D01*
X139399068Y-63522729D01*
X139435000Y-63342089D01*
X139435000Y-63157911D01*
X139399068Y-62977271D01*
X139328586Y-62807111D01*
X139226262Y-62653972D01*
X139096028Y-62523738D01*
X138942889Y-62421414D01*
X138772729Y-62350932D01*
X138592089Y-62315000D01*
X138407911Y-62315000D01*
X138227271Y-62350932D01*
X138057111Y-62421414D01*
X137903972Y-62523738D01*
X137773738Y-62653972D01*
X137671414Y-62807111D01*
X137600932Y-62977271D01*
X137565000Y-63157911D01*
X137565000Y-63197172D01*
X131280344Y-69481829D01*
X131253698Y-69503697D01*
X131231830Y-69530343D01*
X131231826Y-69530347D01*
X131166409Y-69610057D01*
X131101549Y-69731402D01*
X131061608Y-69863071D01*
X131048122Y-70000000D01*
X131051501Y-70034308D01*
X131051500Y-74710672D01*
X131025244Y-74736928D01*
X130000000Y-74736928D01*
X129856009Y-74751110D01*
X129717552Y-74793110D01*
X129589949Y-74861316D01*
X129478104Y-74953104D01*
X129386316Y-75064949D01*
X129318110Y-75192552D01*
X129276110Y-75331009D01*
X129261928Y-75475000D01*
X129261928Y-75675000D01*
X129276110Y-75818991D01*
X129300684Y-75900000D01*
X129276110Y-75981009D01*
X129261928Y-76125000D01*
X129261928Y-76325000D01*
X129276110Y-76468991D01*
X129300684Y-76550000D01*
X129276110Y-76631009D01*
X129261928Y-76775000D01*
X129261928Y-76975000D01*
X129276110Y-77118991D01*
X129300684Y-77200000D01*
X129276110Y-77281009D01*
X129261928Y-77425000D01*
X129261928Y-77476500D01*
X127219541Y-77476500D01*
X127185243Y-77473122D01*
X127150945Y-77476500D01*
X127150934Y-77476500D01*
X127048313Y-77486607D01*
X126916646Y-77526548D01*
X126822486Y-77576878D01*
X126795300Y-77591409D01*
X126715589Y-77656826D01*
X126715586Y-77656829D01*
X126688940Y-77678697D01*
X126667072Y-77705343D01*
X126637956Y-77734459D01*
X126598695Y-77734459D01*
X126418055Y-77770391D01*
X126247895Y-77840873D01*
X126094756Y-77943197D01*
X125964522Y-78073431D01*
X125862198Y-78226570D01*
X125791716Y-78396730D01*
X125755784Y-78577370D01*
X125627000Y-78577370D01*
X125627000Y-61079117D01*
X127765000Y-61079117D01*
X127765000Y-61420883D01*
X127831675Y-61756081D01*
X127962463Y-62071831D01*
X128152337Y-62355998D01*
X128394002Y-62597663D01*
X128678169Y-62787537D01*
X128993919Y-62918325D01*
X129329117Y-62985000D01*
X129670883Y-62985000D01*
X130006081Y-62918325D01*
X130321831Y-62787537D01*
X130605998Y-62597663D01*
X130847663Y-62355998D01*
X131037537Y-62071831D01*
X131168325Y-61756081D01*
X131235000Y-61420883D01*
X131235000Y-61079117D01*
X131168325Y-60743919D01*
X131037537Y-60428169D01*
X130847663Y-60144002D01*
X130605998Y-59902337D01*
X130321831Y-59712463D01*
X130006081Y-59581675D01*
X129670883Y-59515000D01*
X129329117Y-59515000D01*
X128993919Y-59581675D01*
X128678169Y-59712463D01*
X128394002Y-59902337D01*
X128152337Y-60144002D01*
X127962463Y-60428169D01*
X127831675Y-60743919D01*
X127765000Y-61079117D01*
X125627000Y-61079117D01*
X125627000Y-53400000D01*
X144711928Y-53400000D01*
X144724188Y-53524482D01*
X144760498Y-53644180D01*
X144819463Y-53754494D01*
X144898815Y-53851185D01*
X144995506Y-53930537D01*
X145105820Y-53989502D01*
X145225518Y-54025812D01*
X145350000Y-54038072D01*
X145964250Y-54035000D01*
X146123000Y-53876250D01*
X146123000Y-52627000D01*
X144873750Y-52627000D01*
X144715000Y-52785750D01*
X144711928Y-53400000D01*
X125627000Y-53400000D01*
X125627000Y-51600000D01*
X144711928Y-51600000D01*
X144715000Y-52214250D01*
X144873750Y-52373000D01*
X146123000Y-52373000D01*
X146123000Y-51123750D01*
X145964250Y-50965000D01*
X145350000Y-50961928D01*
X145225518Y-50974188D01*
X145105820Y-51010498D01*
X144995506Y-51069463D01*
X144898815Y-51148815D01*
X144819463Y-51245506D01*
X144760498Y-51355820D01*
X144724188Y-51475518D01*
X144711928Y-51600000D01*
X125627000Y-51600000D01*
X125627000Y-50627000D01*
X169373000Y-50627000D01*
X169373000Y-146873000D01*
G04 #@! TA.AperFunction,Conductor*
D22*
G36*
X169373000Y-146873000D02*
G01*
X125627000Y-146873000D01*
X125627000Y-136079117D01*
X127765000Y-136079117D01*
X127765000Y-136420883D01*
X127831675Y-136756081D01*
X127962463Y-137071831D01*
X128152337Y-137355998D01*
X128394002Y-137597663D01*
X128678169Y-137787537D01*
X128993919Y-137918325D01*
X129329117Y-137985000D01*
X129670883Y-137985000D01*
X130006081Y-137918325D01*
X130321831Y-137787537D01*
X130605998Y-137597663D01*
X130847663Y-137355998D01*
X131037537Y-137071831D01*
X131168325Y-136756081D01*
X131235000Y-136420883D01*
X131235000Y-136079117D01*
X131168325Y-135743919D01*
X131037537Y-135428169D01*
X130847663Y-135144002D01*
X130605998Y-134902337D01*
X130321831Y-134712463D01*
X130006081Y-134581675D01*
X129670883Y-134515000D01*
X129329117Y-134515000D01*
X128993919Y-134581675D01*
X128678169Y-134712463D01*
X128394002Y-134902337D01*
X128152337Y-135144002D01*
X127962463Y-135428169D01*
X127831675Y-135743919D01*
X127765000Y-136079117D01*
X125627000Y-136079117D01*
X125627000Y-123250000D01*
X136860000Y-123250000D01*
X136860000Y-143250000D01*
X136865877Y-143309938D01*
X136871336Y-143369924D01*
X136871970Y-143372079D01*
X136872189Y-143374310D01*
X136889574Y-143431891D01*
X136906602Y-143489748D01*
X136907643Y-143491740D01*
X136908291Y-143493885D01*
X136936576Y-143547082D01*
X136964471Y-143600440D01*
X136965874Y-143602185D01*
X136966930Y-143604171D01*
X137005005Y-143650854D01*
X137042737Y-143697785D01*
X137044459Y-143699230D01*
X137045875Y-143700966D01*
X137092204Y-143739293D01*
X137138421Y-143778073D01*
X137140391Y-143779156D01*
X137142117Y-143780584D01*
X137195009Y-143809183D01*
X137247877Y-143838247D01*
X137250020Y-143838927D01*
X137251990Y-143839992D01*
X137309505Y-143857796D01*
X137366937Y-143876014D01*
X137369165Y-143876264D01*
X137371310Y-143876928D01*
X137431177Y-143883220D01*
X137491064Y-143889938D01*
X137495379Y-143889968D01*
X137495532Y-143889984D01*
X137495685Y-143889970D01*
X137500000Y-143890000D01*
X157500000Y-143890000D01*
X157559938Y-143884123D01*
X157619924Y-143878664D01*
X157622079Y-143878030D01*
X157624310Y-143877811D01*
X157681891Y-143860426D01*
X157739748Y-143843398D01*
X157741740Y-143842357D01*
X157743885Y-143841709D01*
X157797082Y-143813424D01*
X157850440Y-143785529D01*
X157852185Y-143784126D01*
X157854171Y-143783070D01*
X157900854Y-143744995D01*
X157947785Y-143707263D01*
X157949230Y-143705541D01*
X157950966Y-143704125D01*
X157989293Y-143657796D01*
X158028073Y-143611579D01*
X158029156Y-143609609D01*
X158030584Y-143607883D01*
X158059183Y-143554991D01*
X158088247Y-143502123D01*
X158088927Y-143499980D01*
X158089992Y-143498010D01*
X158107796Y-143440495D01*
X158126014Y-143383063D01*
X158126264Y-143380835D01*
X158126928Y-143378690D01*
X158133220Y-143318823D01*
X158139938Y-143258936D01*
X158139968Y-143254621D01*
X158139984Y-143254468D01*
X158139970Y-143254315D01*
X158140000Y-143250000D01*
X158140000Y-136079117D01*
X163765000Y-136079117D01*
X163765000Y-136420883D01*
X163831675Y-136756081D01*
X163962463Y-137071831D01*
X164152337Y-137355998D01*
X164394002Y-137597663D01*
X164678169Y-137787537D01*
X164993919Y-137918325D01*
X165329117Y-137985000D01*
X165670883Y-137985000D01*
X166006081Y-137918325D01*
X166321831Y-137787537D01*
X166605998Y-137597663D01*
X166847663Y-137355998D01*
X167037537Y-137071831D01*
X167168325Y-136756081D01*
X167235000Y-136420883D01*
X167235000Y-136079117D01*
X167168325Y-135743919D01*
X167037537Y-135428169D01*
X166847663Y-135144002D01*
X166605998Y-134902337D01*
X166321831Y-134712463D01*
X166006081Y-134581675D01*
X165670883Y-134515000D01*
X165329117Y-134515000D01*
X164993919Y-134581675D01*
X164678169Y-134712463D01*
X164394002Y-134902337D01*
X164152337Y-135144002D01*
X163962463Y-135428169D01*
X163831675Y-135743919D01*
X163765000Y-136079117D01*
X158140000Y-136079117D01*
X158140000Y-123250000D01*
X158134123Y-123190062D01*
X158128664Y-123130076D01*
X158128030Y-123127921D01*
X158127811Y-123125690D01*
X158110426Y-123068109D01*
X158093398Y-123010252D01*
X158092357Y-123008260D01*
X158091709Y-123006115D01*
X158063424Y-122952918D01*
X158035529Y-122899560D01*
X158034126Y-122897815D01*
X158033070Y-122895829D01*
X157994995Y-122849146D01*
X157957263Y-122802215D01*
X157955541Y-122800770D01*
X157954125Y-122799034D01*
X157907796Y-122760707D01*
X157861579Y-122721927D01*
X157859609Y-122720844D01*
X157857883Y-122719416D01*
X157804991Y-122690817D01*
X157752123Y-122661753D01*
X157749980Y-122661073D01*
X157748010Y-122660008D01*
X157690495Y-122642204D01*
X157633063Y-122623986D01*
X157630835Y-122623736D01*
X157628690Y-122623072D01*
X157568823Y-122616780D01*
X157508936Y-122610062D01*
X157504621Y-122610032D01*
X157504468Y-122610016D01*
X157504315Y-122610030D01*
X157500000Y-122610000D01*
X137500000Y-122610000D01*
X137440062Y-122615877D01*
X137380076Y-122621336D01*
X137377921Y-122621970D01*
X137375690Y-122622189D01*
X137318109Y-122639574D01*
X137260252Y-122656602D01*
X137258260Y-122657643D01*
X137256115Y-122658291D01*
X137202918Y-122686576D01*
X137149560Y-122714471D01*
X137147815Y-122715874D01*
X137145829Y-122716930D01*
X137099146Y-122755005D01*
X137052215Y-122792737D01*
X137050770Y-122794459D01*
X137049034Y-122795875D01*
X137010707Y-122842204D01*
X136971927Y-122888421D01*
X136970844Y-122890391D01*
X136969416Y-122892117D01*
X136940817Y-122945009D01*
X136911753Y-122997877D01*
X136911073Y-123000020D01*
X136910008Y-123001990D01*
X136892204Y-123059505D01*
X136873986Y-123116937D01*
X136873736Y-123119165D01*
X136873072Y-123121310D01*
X136866780Y-123181177D01*
X136860062Y-123241064D01*
X136860032Y-123245379D01*
X136860016Y-123245532D01*
X136860030Y-123245685D01*
X136860000Y-123250000D01*
X125627000Y-123250000D01*
X125627000Y-78577370D01*
X125755784Y-78577370D01*
X125755784Y-78761548D01*
X125791716Y-78942188D01*
X125862198Y-79112348D01*
X125964522Y-79265487D01*
X126094756Y-79395721D01*
X126247895Y-79498045D01*
X126321636Y-79528589D01*
X126366237Y-79636266D01*
X126468561Y-79789405D01*
X126598795Y-79919639D01*
X126751934Y-80021963D01*
X126831080Y-80054746D01*
X126873472Y-80157090D01*
X126975796Y-80310229D01*
X127106030Y-80440463D01*
X127259169Y-80542787D01*
X127332599Y-80573203D01*
X127377327Y-80681186D01*
X127479651Y-80834325D01*
X127609885Y-80964559D01*
X127763024Y-81066883D01*
X127881262Y-81115858D01*
X127907339Y-81178814D01*
X128009663Y-81331953D01*
X128139897Y-81462187D01*
X128293036Y-81564511D01*
X128383813Y-81602112D01*
X128421414Y-81692889D01*
X128523738Y-81846028D01*
X128653972Y-81976262D01*
X128807111Y-82078586D01*
X128977271Y-82149068D01*
X129157911Y-82185000D01*
X129342089Y-82185000D01*
X129522729Y-82149068D01*
X129575811Y-82127081D01*
X129589949Y-82138684D01*
X129717552Y-82206890D01*
X129856009Y-82248890D01*
X130000000Y-82263072D01*
X130171426Y-82263072D01*
X128026334Y-84408164D01*
X127999688Y-84430032D01*
X127977820Y-84456678D01*
X127977816Y-84456682D01*
X127912399Y-84536392D01*
X127847539Y-84657737D01*
X127847539Y-84657738D01*
X127807598Y-84789405D01*
X127800110Y-84865430D01*
X127794112Y-84926335D01*
X127797491Y-84960643D01*
X127797490Y-91041692D01*
X127794112Y-91075990D01*
X127797490Y-91110288D01*
X127797490Y-91110298D01*
X127807597Y-91212919D01*
X127837472Y-91311402D01*
X127847539Y-91344588D01*
X127912399Y-91465933D01*
X127977816Y-91545643D01*
X127977819Y-91545646D01*
X127999687Y-91572292D01*
X128026334Y-91594161D01*
X128824103Y-92391930D01*
X128822068Y-92396842D01*
X128765000Y-92683740D01*
X128765000Y-92976260D01*
X128822068Y-93263158D01*
X128934010Y-93533411D01*
X129096525Y-93776632D01*
X129303368Y-93983475D01*
X129546589Y-94145990D01*
X129816842Y-94257932D01*
X130103740Y-94315000D01*
X130396260Y-94315000D01*
X130683158Y-94257932D01*
X130688070Y-94255897D01*
X135351501Y-98919329D01*
X135351500Y-106811928D01*
X134800000Y-106811928D01*
X134675518Y-106824188D01*
X134555820Y-106860498D01*
X134445506Y-106919463D01*
X134348815Y-106998815D01*
X134269463Y-107095506D01*
X134210498Y-107205820D01*
X134174188Y-107325518D01*
X134161928Y-107450000D01*
X134161928Y-112550000D01*
X134174188Y-112674482D01*
X134210498Y-112794180D01*
X134269463Y-112904494D01*
X134348815Y-113001185D01*
X134445506Y-113080537D01*
X134555820Y-113139502D01*
X134675518Y-113175812D01*
X134800000Y-113188072D01*
X137300000Y-113188072D01*
X137424482Y-113175812D01*
X137544180Y-113139502D01*
X137654494Y-113080537D01*
X137751185Y-113001185D01*
X137830537Y-112904494D01*
X137889502Y-112794180D01*
X137925812Y-112674482D01*
X137938072Y-112550000D01*
X137938072Y-107450000D01*
X137925812Y-107325518D01*
X137889502Y-107205820D01*
X137830537Y-107095506D01*
X137751185Y-106998815D01*
X137654494Y-106919463D01*
X137544180Y-106860498D01*
X137424482Y-106824188D01*
X137300000Y-106811928D01*
X136748500Y-106811928D01*
X136748500Y-98664298D01*
X136751878Y-98630000D01*
X136748500Y-98595702D01*
X136748500Y-98595691D01*
X136738393Y-98493070D01*
X136698452Y-98361403D01*
X136633591Y-98240057D01*
X136568174Y-98160346D01*
X136568171Y-98160343D01*
X136546303Y-98133697D01*
X136519657Y-98111829D01*
X133986945Y-95579117D01*
X145765000Y-95579117D01*
X145765000Y-95920883D01*
X145831675Y-96256081D01*
X145962463Y-96571831D01*
X146152337Y-96855998D01*
X146394002Y-97097663D01*
X146678169Y-97287537D01*
X146993919Y-97418325D01*
X147329117Y-97485000D01*
X147670883Y-97485000D01*
X148006081Y-97418325D01*
X148321831Y-97287537D01*
X148605998Y-97097663D01*
X148847663Y-96855998D01*
X149037537Y-96571831D01*
X149168325Y-96256081D01*
X149235000Y-95920883D01*
X149235000Y-95579117D01*
X149168325Y-95243919D01*
X149037537Y-94928169D01*
X148847663Y-94644002D01*
X148605998Y-94402337D01*
X148321831Y-94212463D01*
X148006081Y-94081675D01*
X147670883Y-94015000D01*
X147329117Y-94015000D01*
X146993919Y-94081675D01*
X146678169Y-94212463D01*
X146394002Y-94402337D01*
X146152337Y-94644002D01*
X145962463Y-94928169D01*
X145831675Y-95243919D01*
X145765000Y-95579117D01*
X133986945Y-95579117D01*
X131675897Y-93268070D01*
X131677932Y-93263158D01*
X131735000Y-92976260D01*
X131735000Y-92683740D01*
X131677932Y-92396842D01*
X131675897Y-92391930D01*
X131969662Y-92098166D01*
X131996302Y-92076303D01*
X132018167Y-92049661D01*
X132018174Y-92049654D01*
X132083591Y-91969944D01*
X132148451Y-91848599D01*
X132169907Y-91777869D01*
X132188393Y-91716930D01*
X132198500Y-91614309D01*
X132198500Y-91614298D01*
X132201878Y-91580000D01*
X132198500Y-91545702D01*
X132198500Y-89784297D01*
X132201878Y-89749999D01*
X132198500Y-89715701D01*
X132198500Y-89715691D01*
X132188393Y-89613070D01*
X132148452Y-89481403D01*
X132146844Y-89478394D01*
X132083591Y-89360056D01*
X132018174Y-89280345D01*
X132018166Y-89280337D01*
X131996303Y-89253697D01*
X131969662Y-89231833D01*
X131407617Y-88669789D01*
X131521641Y-88516920D01*
X131646825Y-88254099D01*
X131691476Y-88106890D01*
X131570155Y-87877000D01*
X130377000Y-87877000D01*
X130377000Y-87897000D01*
X130123000Y-87897000D01*
X130123000Y-87877000D01*
X130103000Y-87877000D01*
X130103000Y-87623000D01*
X130123000Y-87623000D01*
X130123000Y-87603000D01*
X130377000Y-87603000D01*
X130377000Y-87623000D01*
X131570155Y-87623000D01*
X131691476Y-87393110D01*
X131646825Y-87245901D01*
X131521641Y-86983080D01*
X131407605Y-86830194D01*
X131969667Y-86268133D01*
X131996302Y-86246274D01*
X132018162Y-86219638D01*
X132018174Y-86219626D01*
X132083591Y-86139915D01*
X132148451Y-86018570D01*
X132156096Y-85993368D01*
X132188393Y-85886901D01*
X132198500Y-85784280D01*
X132198500Y-85784270D01*
X132201878Y-85749972D01*
X132198500Y-85715674D01*
X132198500Y-83289325D01*
X134078392Y-81409434D01*
X134100928Y-81522729D01*
X134171410Y-81692889D01*
X134273734Y-81846028D01*
X134403968Y-81976262D01*
X134557107Y-82078586D01*
X134727267Y-82149068D01*
X134907907Y-82185000D01*
X135092085Y-82185000D01*
X135272725Y-82149068D01*
X135309195Y-82133962D01*
X135314949Y-82138684D01*
X135442552Y-82206890D01*
X135581009Y-82248890D01*
X135725000Y-82263072D01*
X137000000Y-82263072D01*
X137143991Y-82248890D01*
X137282448Y-82206890D01*
X137410051Y-82138684D01*
X137521896Y-82046896D01*
X137613684Y-81935051D01*
X137681890Y-81807448D01*
X137719034Y-81685000D01*
X137842089Y-81685000D01*
X137889447Y-81675580D01*
X137903992Y-81823254D01*
X137954528Y-81989850D01*
X138036595Y-82143386D01*
X138147038Y-82277962D01*
X138281614Y-82388405D01*
X138435150Y-82470472D01*
X138601746Y-82521008D01*
X138775000Y-82538072D01*
X139725000Y-82538072D01*
X139898254Y-82521008D01*
X140064850Y-82470472D01*
X140218386Y-82388405D01*
X140352962Y-82277962D01*
X140463405Y-82143386D01*
X140545472Y-81989850D01*
X140596008Y-81823254D01*
X140613072Y-81650000D01*
X140613072Y-81150000D01*
X140596008Y-80976746D01*
X140545472Y-80810150D01*
X140463405Y-80656614D01*
X140352962Y-80522038D01*
X140346406Y-80516658D01*
X140426185Y-80451185D01*
X140505537Y-80354494D01*
X140564502Y-80244180D01*
X140577903Y-80200000D01*
X141261928Y-80200000D01*
X141274188Y-80324482D01*
X141310498Y-80444180D01*
X141369463Y-80554494D01*
X141448815Y-80651185D01*
X141545506Y-80730537D01*
X141655820Y-80789502D01*
X141775518Y-80825812D01*
X141900000Y-80838072D01*
X142664250Y-80835000D01*
X142823000Y-80676250D01*
X142823000Y-79627000D01*
X143077000Y-79627000D01*
X143077000Y-80676250D01*
X143235750Y-80835000D01*
X144000000Y-80838072D01*
X144124482Y-80825812D01*
X144244180Y-80789502D01*
X144354494Y-80730537D01*
X144451185Y-80651185D01*
X144530537Y-80554494D01*
X144589502Y-80444180D01*
X144625812Y-80324482D01*
X144638072Y-80200000D01*
X150361928Y-80200000D01*
X150374188Y-80324482D01*
X150410498Y-80444180D01*
X150469463Y-80554494D01*
X150548815Y-80651185D01*
X150645506Y-80730537D01*
X150755820Y-80789502D01*
X150875518Y-80825812D01*
X151000000Y-80838072D01*
X151764250Y-80835000D01*
X151923000Y-80676250D01*
X151923000Y-79627000D01*
X152177000Y-79627000D01*
X152177000Y-80676250D01*
X152335750Y-80835000D01*
X153100000Y-80838072D01*
X153224482Y-80825812D01*
X153344180Y-80789502D01*
X153454494Y-80730537D01*
X153551185Y-80651185D01*
X153630537Y-80554494D01*
X153689502Y-80444180D01*
X153725812Y-80324482D01*
X153738072Y-80200000D01*
X153735000Y-79785750D01*
X153576250Y-79627000D01*
X152177000Y-79627000D01*
X151923000Y-79627000D01*
X150523750Y-79627000D01*
X150365000Y-79785750D01*
X150361928Y-80200000D01*
X144638072Y-80200000D01*
X144635000Y-79785750D01*
X144476250Y-79627000D01*
X143077000Y-79627000D01*
X142823000Y-79627000D01*
X141423750Y-79627000D01*
X141265000Y-79785750D01*
X141261928Y-80200000D01*
X140577903Y-80200000D01*
X140600812Y-80124482D01*
X140613072Y-80000000D01*
X140610000Y-79785750D01*
X140451250Y-79627000D01*
X139377000Y-79627000D01*
X139377000Y-79647000D01*
X139123000Y-79647000D01*
X139123000Y-79627000D01*
X139103000Y-79627000D01*
X139103000Y-79373000D01*
X139123000Y-79373000D01*
X139123000Y-79353000D01*
X139377000Y-79353000D01*
X139377000Y-79373000D01*
X140451250Y-79373000D01*
X140610000Y-79214250D01*
X140610226Y-79198500D01*
X141264883Y-79198500D01*
X141265000Y-79214250D01*
X141423750Y-79373000D01*
X142823000Y-79373000D01*
X142823000Y-79353000D01*
X143077000Y-79353000D01*
X143077000Y-79373000D01*
X144476250Y-79373000D01*
X144635000Y-79214250D01*
X144635117Y-79198500D01*
X150364883Y-79198500D01*
X150365000Y-79214250D01*
X150523750Y-79373000D01*
X151923000Y-79373000D01*
X151923000Y-79353000D01*
X152177000Y-79353000D01*
X152177000Y-79373000D01*
X153576250Y-79373000D01*
X153735000Y-79214250D01*
X153735117Y-79198500D01*
X154911928Y-79198500D01*
X154911928Y-79587501D01*
X154928992Y-79760755D01*
X154979528Y-79927351D01*
X155061595Y-80080887D01*
X155172038Y-80215462D01*
X155306613Y-80325905D01*
X155460149Y-80407972D01*
X155626745Y-80458508D01*
X155799999Y-80475572D01*
X156412745Y-80475572D01*
X158251501Y-82314329D01*
X158251500Y-106811928D01*
X157700000Y-106811928D01*
X157575518Y-106824188D01*
X157455820Y-106860498D01*
X157345506Y-106919463D01*
X157248815Y-106998815D01*
X157169463Y-107095506D01*
X157110498Y-107205820D01*
X157074188Y-107325518D01*
X157061928Y-107450000D01*
X157061928Y-112550000D01*
X157074188Y-112674482D01*
X157110498Y-112794180D01*
X157169463Y-112904494D01*
X157248815Y-113001185D01*
X157345506Y-113080537D01*
X157455820Y-113139502D01*
X157575518Y-113175812D01*
X157700000Y-113188072D01*
X160200000Y-113188072D01*
X160324482Y-113175812D01*
X160444180Y-113139502D01*
X160554494Y-113080537D01*
X160651185Y-113001185D01*
X160730537Y-112904494D01*
X160789502Y-112794180D01*
X160825812Y-112674482D01*
X160838072Y-112550000D01*
X160838072Y-107450000D01*
X160825812Y-107325518D01*
X160789502Y-107205820D01*
X160730537Y-107095506D01*
X160651185Y-106998815D01*
X160554494Y-106919463D01*
X160444180Y-106860498D01*
X160324482Y-106824188D01*
X160200000Y-106811928D01*
X159648500Y-106811928D01*
X159648500Y-82375849D01*
X163011000Y-85738350D01*
X163010999Y-89215201D01*
X163007621Y-89249499D01*
X163010999Y-89283797D01*
X163010999Y-89283807D01*
X163021106Y-89386428D01*
X163061047Y-89518095D01*
X163061048Y-89518097D01*
X163125908Y-89639442D01*
X163191325Y-89719152D01*
X163191328Y-89719155D01*
X163213196Y-89745801D01*
X163239843Y-89767670D01*
X163324103Y-89851930D01*
X163322068Y-89856842D01*
X163265000Y-90143740D01*
X163265000Y-90436260D01*
X163322068Y-90723158D01*
X163434010Y-90993411D01*
X163596525Y-91236632D01*
X163803368Y-91443475D01*
X164046589Y-91605990D01*
X164316842Y-91717932D01*
X164603740Y-91775000D01*
X164896260Y-91775000D01*
X165183158Y-91717932D01*
X165453411Y-91605990D01*
X165696632Y-91443475D01*
X165903475Y-91236632D01*
X166065990Y-90993411D01*
X166177932Y-90723158D01*
X166235000Y-90436260D01*
X166235000Y-90143740D01*
X166177932Y-89856842D01*
X166065990Y-89586589D01*
X165903475Y-89343368D01*
X165696632Y-89136525D01*
X165522240Y-89020000D01*
X165696632Y-88903475D01*
X165903475Y-88696632D01*
X166065990Y-88453411D01*
X166177932Y-88183158D01*
X166235000Y-87896260D01*
X166235000Y-87603740D01*
X166177932Y-87316842D01*
X166065990Y-87046589D01*
X165903475Y-86803368D01*
X165696632Y-86596525D01*
X165453411Y-86434010D01*
X165448500Y-86431976D01*
X165448500Y-86164596D01*
X165451878Y-86130298D01*
X165448500Y-86096000D01*
X165448500Y-86095989D01*
X165438393Y-85993368D01*
X165398452Y-85861701D01*
X165366274Y-85801500D01*
X165333591Y-85740354D01*
X165268174Y-85660644D01*
X165268167Y-85660637D01*
X165246302Y-85633995D01*
X165219662Y-85612132D01*
X157564556Y-77957026D01*
X157571008Y-77935755D01*
X157588072Y-77762501D01*
X157588072Y-77237499D01*
X157571008Y-77064245D01*
X157520472Y-76897649D01*
X157438405Y-76744113D01*
X157327962Y-76609538D01*
X157193387Y-76499095D01*
X157039851Y-76417028D01*
X156948500Y-76389317D01*
X156948500Y-76105766D01*
X157064850Y-76070472D01*
X157218386Y-75988405D01*
X157352962Y-75877962D01*
X157463405Y-75743386D01*
X157545472Y-75589850D01*
X157596008Y-75423254D01*
X157613072Y-75250000D01*
X157613072Y-74750000D01*
X157596008Y-74576746D01*
X157545472Y-74410150D01*
X157463405Y-74256614D01*
X157352962Y-74122038D01*
X157346406Y-74116658D01*
X157426185Y-74051185D01*
X157505537Y-73954494D01*
X157564502Y-73844180D01*
X157600812Y-73724482D01*
X157613072Y-73600000D01*
X157610000Y-73385750D01*
X157451250Y-73227000D01*
X156377000Y-73227000D01*
X156377000Y-73247000D01*
X156123000Y-73247000D01*
X156123000Y-73227000D01*
X155048750Y-73227000D01*
X154890000Y-73385750D01*
X154886928Y-73600000D01*
X154899188Y-73724482D01*
X154935498Y-73844180D01*
X154994463Y-73954494D01*
X155073815Y-74051185D01*
X155153594Y-74116658D01*
X155147038Y-74122038D01*
X155036595Y-74256614D01*
X155012603Y-74301500D01*
X153738072Y-74301500D01*
X153738072Y-74300000D01*
X153725812Y-74175518D01*
X153689502Y-74055820D01*
X153630537Y-73945506D01*
X153551185Y-73848815D01*
X153454494Y-73769463D01*
X153344180Y-73710498D01*
X153224482Y-73674188D01*
X153100000Y-73661928D01*
X151000000Y-73661928D01*
X150875518Y-73674188D01*
X150755820Y-73710498D01*
X150645506Y-73769463D01*
X150548815Y-73848815D01*
X150469463Y-73945506D01*
X150410498Y-74055820D01*
X150374188Y-74175518D01*
X150361928Y-74300000D01*
X150361928Y-75700000D01*
X150374188Y-75824482D01*
X150410498Y-75944180D01*
X150469463Y-76054494D01*
X150548815Y-76151185D01*
X150645506Y-76230537D01*
X150755820Y-76289502D01*
X150875518Y-76325812D01*
X151000000Y-76338072D01*
X153100000Y-76338072D01*
X153224482Y-76325812D01*
X153344180Y-76289502D01*
X153454494Y-76230537D01*
X153551185Y-76151185D01*
X153630537Y-76054494D01*
X153689502Y-75944180D01*
X153725812Y-75824482D01*
X153738072Y-75700000D01*
X153738072Y-75698500D01*
X155012603Y-75698500D01*
X155036595Y-75743386D01*
X155147038Y-75877962D01*
X155281614Y-75988405D01*
X155435150Y-76070472D01*
X155551501Y-76105766D01*
X155551500Y-76389317D01*
X155460149Y-76417028D01*
X155306613Y-76499095D01*
X155172038Y-76609538D01*
X155061595Y-76744113D01*
X154979528Y-76897649D01*
X154928992Y-77064245D01*
X154911928Y-77237499D01*
X154911928Y-77547489D01*
X141390338Y-77547489D01*
X142599756Y-76338072D01*
X144000000Y-76338072D01*
X144124482Y-76325812D01*
X144244180Y-76289502D01*
X144354494Y-76230537D01*
X144451185Y-76151185D01*
X144530537Y-76054494D01*
X144589502Y-75944180D01*
X144625812Y-75824482D01*
X144638072Y-75700000D01*
X144638072Y-74300000D01*
X144625812Y-74175518D01*
X144589502Y-74055820D01*
X144530537Y-73945506D01*
X144451185Y-73848815D01*
X144354494Y-73769463D01*
X144244180Y-73710498D01*
X144124482Y-73674188D01*
X144000000Y-73661928D01*
X141900000Y-73661928D01*
X141775518Y-73674188D01*
X141655820Y-73710498D01*
X141545506Y-73769463D01*
X141448815Y-73848815D01*
X141369463Y-73945506D01*
X141310498Y-74055820D01*
X141274188Y-74175518D01*
X141261928Y-74300000D01*
X141261928Y-75700000D01*
X141261950Y-75700222D01*
X140135673Y-76826500D01*
X137897173Y-76826500D01*
X142123673Y-72600000D01*
X154886928Y-72600000D01*
X154890000Y-72814250D01*
X155048750Y-72973000D01*
X156123000Y-72973000D01*
X156123000Y-72123750D01*
X156377000Y-72123750D01*
X156377000Y-72973000D01*
X157451250Y-72973000D01*
X157610000Y-72814250D01*
X157613072Y-72600000D01*
X157600812Y-72475518D01*
X157564502Y-72355820D01*
X157505537Y-72245506D01*
X157426185Y-72148815D01*
X157329494Y-72069463D01*
X157219180Y-72010498D01*
X157099482Y-71974188D01*
X156975000Y-71961928D01*
X156535750Y-71965000D01*
X156377000Y-72123750D01*
X156123000Y-72123750D01*
X155964250Y-71965000D01*
X155525000Y-71961928D01*
X155400518Y-71974188D01*
X155280820Y-72010498D01*
X155170506Y-72069463D01*
X155073815Y-72148815D01*
X154994463Y-72245506D01*
X154935498Y-72355820D01*
X154899188Y-72475518D01*
X154886928Y-72600000D01*
X142123673Y-72600000D01*
X147969657Y-66754017D01*
X147996303Y-66732149D01*
X148018171Y-66705503D01*
X148018174Y-66705500D01*
X148083591Y-66625790D01*
X148148451Y-66504444D01*
X148148452Y-66504443D01*
X148188393Y-66372776D01*
X148198500Y-66270155D01*
X148198500Y-66270144D01*
X148201878Y-66235846D01*
X148198500Y-66201548D01*
X148198500Y-63219079D01*
X148255887Y-63188405D01*
X148390462Y-63077962D01*
X148500905Y-62943387D01*
X148582972Y-62789851D01*
X148633508Y-62623255D01*
X148650572Y-62450001D01*
X148650572Y-61549999D01*
X148633508Y-61376745D01*
X148582972Y-61210149D01*
X148512934Y-61079117D01*
X163765000Y-61079117D01*
X163765000Y-61420883D01*
X163831675Y-61756081D01*
X163962463Y-62071831D01*
X164152337Y-62355998D01*
X164394002Y-62597663D01*
X164678169Y-62787537D01*
X164993919Y-62918325D01*
X165329117Y-62985000D01*
X165670883Y-62985000D01*
X166006081Y-62918325D01*
X166321831Y-62787537D01*
X166605998Y-62597663D01*
X166847663Y-62355998D01*
X167037537Y-62071831D01*
X167168325Y-61756081D01*
X167235000Y-61420883D01*
X167235000Y-61079117D01*
X167168325Y-60743919D01*
X167037537Y-60428169D01*
X166847663Y-60144002D01*
X166605998Y-59902337D01*
X166321831Y-59712463D01*
X166006081Y-59581675D01*
X165670883Y-59515000D01*
X165329117Y-59515000D01*
X164993919Y-59581675D01*
X164678169Y-59712463D01*
X164394002Y-59902337D01*
X164152337Y-60144002D01*
X163962463Y-60428169D01*
X163831675Y-60743919D01*
X163765000Y-61079117D01*
X148512934Y-61079117D01*
X148500905Y-61056613D01*
X148390462Y-60922038D01*
X148255887Y-60811595D01*
X148203978Y-60783849D01*
X152969657Y-56018171D01*
X152996303Y-55996303D01*
X153018173Y-55969655D01*
X153083591Y-55889944D01*
X153148451Y-55768599D01*
X153148452Y-55768597D01*
X153188393Y-55636930D01*
X153190746Y-55613035D01*
X153289851Y-55582972D01*
X153443387Y-55500905D01*
X153577962Y-55390462D01*
X153688405Y-55255887D01*
X153770472Y-55102351D01*
X153821008Y-54935755D01*
X153838072Y-54762501D01*
X153838072Y-54237499D01*
X153821008Y-54064245D01*
X153770472Y-53897649D01*
X153688405Y-53744113D01*
X153577962Y-53609538D01*
X153551109Y-53587500D01*
X153577962Y-53565462D01*
X153688405Y-53430887D01*
X153770472Y-53277351D01*
X153821008Y-53110755D01*
X153838072Y-52937501D01*
X153838072Y-52412499D01*
X153821008Y-52239245D01*
X153770472Y-52072649D01*
X153688405Y-51919113D01*
X153577962Y-51784538D01*
X153443387Y-51674095D01*
X153289851Y-51592028D01*
X153123255Y-51541492D01*
X152950001Y-51524428D01*
X152049999Y-51524428D01*
X151876745Y-51541492D01*
X151710149Y-51592028D01*
X151556613Y-51674095D01*
X151422038Y-51784538D01*
X151408118Y-51801500D01*
X150162143Y-51801500D01*
X150150299Y-51772905D01*
X149982312Y-51521495D01*
X149768505Y-51307688D01*
X149517095Y-51139701D01*
X149237743Y-51023989D01*
X148941184Y-50965000D01*
X148638816Y-50965000D01*
X148342257Y-51023989D01*
X148062905Y-51139701D01*
X147811495Y-51307688D01*
X147745056Y-51374127D01*
X147739502Y-51355820D01*
X147680537Y-51245506D01*
X147601185Y-51148815D01*
X147504494Y-51069463D01*
X147394180Y-51010498D01*
X147274482Y-50974188D01*
X147150000Y-50961928D01*
X146535750Y-50965000D01*
X146377000Y-51123750D01*
X146377000Y-52373000D01*
X146397000Y-52373000D01*
X146397000Y-52627000D01*
X146377000Y-52627000D01*
X146377000Y-53876250D01*
X146535750Y-54035000D01*
X147150000Y-54038072D01*
X147274482Y-54025812D01*
X147394180Y-53989502D01*
X147504494Y-53930537D01*
X147601185Y-53851185D01*
X147680537Y-53754494D01*
X147739502Y-53644180D01*
X147745056Y-53625873D01*
X147811495Y-53692312D01*
X148062905Y-53860299D01*
X148342257Y-53976011D01*
X148638816Y-54035000D01*
X148941184Y-54035000D01*
X149237743Y-53976011D01*
X149517095Y-53860299D01*
X149768505Y-53692312D01*
X149982312Y-53478505D01*
X150150299Y-53227095D01*
X150162143Y-53198500D01*
X151205609Y-53198500D01*
X151229528Y-53277351D01*
X151311595Y-53430887D01*
X151422038Y-53565462D01*
X151448891Y-53587500D01*
X151422038Y-53609538D01*
X151311595Y-53744113D01*
X151229528Y-53897649D01*
X151178992Y-54064245D01*
X151161928Y-54237499D01*
X151161928Y-54762501D01*
X151178992Y-54935755D01*
X151229528Y-55102351D01*
X151311595Y-55255887D01*
X151422038Y-55390462D01*
X151531707Y-55480465D01*
X150255711Y-56756461D01*
X150126250Y-56627000D01*
X148877000Y-56627000D01*
X148877000Y-57876250D01*
X149006461Y-58005711D01*
X146280801Y-60731372D01*
X146277351Y-60729528D01*
X146110755Y-60678992D01*
X145937501Y-60661928D01*
X145412499Y-60661928D01*
X145239245Y-60678992D01*
X145072649Y-60729528D01*
X144919113Y-60811595D01*
X144784538Y-60922038D01*
X144674095Y-61056613D01*
X144592028Y-61210149D01*
X144541492Y-61376745D01*
X144524428Y-61549999D01*
X144524428Y-61551500D01*
X143937193Y-61551500D01*
X143880537Y-61445506D01*
X143801185Y-61348815D01*
X143704494Y-61269463D01*
X143594180Y-61210498D01*
X143474482Y-61174188D01*
X143350000Y-61161928D01*
X142838095Y-61161928D01*
X142851185Y-61151185D01*
X142930537Y-61054494D01*
X142989502Y-60944180D01*
X143025812Y-60824482D01*
X143038072Y-60700000D01*
X143038072Y-59800000D01*
X143025812Y-59675518D01*
X142989502Y-59555820D01*
X142930537Y-59445506D01*
X142851185Y-59348815D01*
X142815303Y-59319368D01*
X142943387Y-59250905D01*
X143077962Y-59140462D01*
X143188405Y-59005887D01*
X143270472Y-58852351D01*
X143321008Y-58685755D01*
X143338072Y-58512501D01*
X143338072Y-57987499D01*
X143321008Y-57814245D01*
X143270472Y-57647649D01*
X143188405Y-57494113D01*
X143077962Y-57359538D01*
X143051109Y-57337500D01*
X143077962Y-57315462D01*
X143173950Y-57198500D01*
X144837857Y-57198500D01*
X144849701Y-57227095D01*
X145017688Y-57478505D01*
X145231495Y-57692312D01*
X145482905Y-57860299D01*
X145762257Y-57976011D01*
X146058816Y-58035000D01*
X146361184Y-58035000D01*
X146657743Y-57976011D01*
X146937095Y-57860299D01*
X147188505Y-57692312D01*
X147254944Y-57625873D01*
X147260498Y-57644180D01*
X147319463Y-57754494D01*
X147398815Y-57851185D01*
X147495506Y-57930537D01*
X147605820Y-57989502D01*
X147725518Y-58025812D01*
X147850000Y-58038072D01*
X148464250Y-58035000D01*
X148623000Y-57876250D01*
X148623000Y-56627000D01*
X148603000Y-56627000D01*
X148603000Y-56373000D01*
X148623000Y-56373000D01*
X148623000Y-55123750D01*
X148877000Y-55123750D01*
X148877000Y-56373000D01*
X150126250Y-56373000D01*
X150285000Y-56214250D01*
X150288072Y-55600000D01*
X150275812Y-55475518D01*
X150239502Y-55355820D01*
X150180537Y-55245506D01*
X150101185Y-55148815D01*
X150004494Y-55069463D01*
X149894180Y-55010498D01*
X149774482Y-54974188D01*
X149650000Y-54961928D01*
X149035750Y-54965000D01*
X148877000Y-55123750D01*
X148623000Y-55123750D01*
X148464250Y-54965000D01*
X147850000Y-54961928D01*
X147725518Y-54974188D01*
X147605820Y-55010498D01*
X147495506Y-55069463D01*
X147398815Y-55148815D01*
X147319463Y-55245506D01*
X147260498Y-55355820D01*
X147254944Y-55374127D01*
X147188505Y-55307688D01*
X146937095Y-55139701D01*
X146657743Y-55023989D01*
X146361184Y-54965000D01*
X146058816Y-54965000D01*
X145762257Y-55023989D01*
X145482905Y-55139701D01*
X145231495Y-55307688D01*
X145017688Y-55521495D01*
X144849701Y-55772905D01*
X144837857Y-55801500D01*
X143259168Y-55801500D01*
X143188405Y-55669113D01*
X143077962Y-55534538D01*
X142943387Y-55424095D01*
X142789851Y-55342028D01*
X142623255Y-55291492D01*
X142450001Y-55274428D01*
X141549999Y-55274428D01*
X141376745Y-55291492D01*
X141210149Y-55342028D01*
X141056613Y-55424095D01*
X140922038Y-55534538D01*
X140811595Y-55669113D01*
X140729528Y-55822649D01*
X140678992Y-55989245D01*
X140661928Y-56162499D01*
X140661928Y-56687501D01*
X140678992Y-56860755D01*
X140729528Y-57027351D01*
X140811595Y-57180887D01*
X140922038Y-57315462D01*
X140948891Y-57337500D01*
X140922038Y-57359538D01*
X140811595Y-57494113D01*
X140729528Y-57647649D01*
X140678992Y-57814245D01*
X140661928Y-57987499D01*
X140661928Y-58512501D01*
X140678992Y-58685755D01*
X140729528Y-58852351D01*
X140811595Y-59005887D01*
X140922038Y-59140462D01*
X141056613Y-59250905D01*
X141184697Y-59319368D01*
X141148815Y-59348815D01*
X141069463Y-59445506D01*
X141010498Y-59555820D01*
X140974188Y-59675518D01*
X140961928Y-59800000D01*
X140961928Y-60700000D01*
X140974188Y-60824482D01*
X141010498Y-60944180D01*
X141069463Y-61054494D01*
X141148815Y-61151185D01*
X141161905Y-61161928D01*
X140650000Y-61161928D01*
X140525518Y-61174188D01*
X140405820Y-61210498D01*
X140295506Y-61269463D01*
X140198815Y-61348815D01*
X140119463Y-61445506D01*
X140060498Y-61555820D01*
X140024188Y-61675518D01*
X140011928Y-61800000D01*
X140011928Y-62700000D01*
X140024188Y-62824482D01*
X140060498Y-62944180D01*
X140063108Y-62949064D01*
X139365630Y-63646543D01*
X139356706Y-63625000D01*
X139399068Y-63522729D01*
X139435000Y-63342089D01*
X139435000Y-63157911D01*
X139399068Y-62977271D01*
X139328586Y-62807111D01*
X139226262Y-62653972D01*
X139096028Y-62523738D01*
X138942889Y-62421414D01*
X138772729Y-62350932D01*
X138592089Y-62315000D01*
X138407911Y-62315000D01*
X138227271Y-62350932D01*
X138057111Y-62421414D01*
X137903972Y-62523738D01*
X137773738Y-62653972D01*
X137671414Y-62807111D01*
X137600932Y-62977271D01*
X137565000Y-63157911D01*
X137565000Y-63197172D01*
X131280344Y-69481829D01*
X131253698Y-69503697D01*
X131231830Y-69530343D01*
X131231826Y-69530347D01*
X131166409Y-69610057D01*
X131101549Y-69731402D01*
X131061608Y-69863071D01*
X131048122Y-70000000D01*
X131051501Y-70034308D01*
X131051500Y-74710672D01*
X131025244Y-74736928D01*
X130000000Y-74736928D01*
X129856009Y-74751110D01*
X129717552Y-74793110D01*
X129589949Y-74861316D01*
X129478104Y-74953104D01*
X129386316Y-75064949D01*
X129318110Y-75192552D01*
X129276110Y-75331009D01*
X129261928Y-75475000D01*
X129261928Y-75675000D01*
X129276110Y-75818991D01*
X129300684Y-75900000D01*
X129276110Y-75981009D01*
X129261928Y-76125000D01*
X129261928Y-76325000D01*
X129276110Y-76468991D01*
X129300684Y-76550000D01*
X129276110Y-76631009D01*
X129261928Y-76775000D01*
X129261928Y-76975000D01*
X129276110Y-77118991D01*
X129300684Y-77200000D01*
X129276110Y-77281009D01*
X129261928Y-77425000D01*
X129261928Y-77476500D01*
X127219541Y-77476500D01*
X127185243Y-77473122D01*
X127150945Y-77476500D01*
X127150934Y-77476500D01*
X127048313Y-77486607D01*
X126916646Y-77526548D01*
X126822486Y-77576878D01*
X126795300Y-77591409D01*
X126715589Y-77656826D01*
X126715586Y-77656829D01*
X126688940Y-77678697D01*
X126667072Y-77705343D01*
X126637956Y-77734459D01*
X126598695Y-77734459D01*
X126418055Y-77770391D01*
X126247895Y-77840873D01*
X126094756Y-77943197D01*
X125964522Y-78073431D01*
X125862198Y-78226570D01*
X125791716Y-78396730D01*
X125755784Y-78577370D01*
X125627000Y-78577370D01*
X125627000Y-61079117D01*
X127765000Y-61079117D01*
X127765000Y-61420883D01*
X127831675Y-61756081D01*
X127962463Y-62071831D01*
X128152337Y-62355998D01*
X128394002Y-62597663D01*
X128678169Y-62787537D01*
X128993919Y-62918325D01*
X129329117Y-62985000D01*
X129670883Y-62985000D01*
X130006081Y-62918325D01*
X130321831Y-62787537D01*
X130605998Y-62597663D01*
X130847663Y-62355998D01*
X131037537Y-62071831D01*
X131168325Y-61756081D01*
X131235000Y-61420883D01*
X131235000Y-61079117D01*
X131168325Y-60743919D01*
X131037537Y-60428169D01*
X130847663Y-60144002D01*
X130605998Y-59902337D01*
X130321831Y-59712463D01*
X130006081Y-59581675D01*
X129670883Y-59515000D01*
X129329117Y-59515000D01*
X128993919Y-59581675D01*
X128678169Y-59712463D01*
X128394002Y-59902337D01*
X128152337Y-60144002D01*
X127962463Y-60428169D01*
X127831675Y-60743919D01*
X127765000Y-61079117D01*
X125627000Y-61079117D01*
X125627000Y-53400000D01*
X144711928Y-53400000D01*
X144724188Y-53524482D01*
X144760498Y-53644180D01*
X144819463Y-53754494D01*
X144898815Y-53851185D01*
X144995506Y-53930537D01*
X145105820Y-53989502D01*
X145225518Y-54025812D01*
X145350000Y-54038072D01*
X145964250Y-54035000D01*
X146123000Y-53876250D01*
X146123000Y-52627000D01*
X144873750Y-52627000D01*
X144715000Y-52785750D01*
X144711928Y-53400000D01*
X125627000Y-53400000D01*
X125627000Y-51600000D01*
X144711928Y-51600000D01*
X144715000Y-52214250D01*
X144873750Y-52373000D01*
X146123000Y-52373000D01*
X146123000Y-51123750D01*
X145964250Y-50965000D01*
X145350000Y-50961928D01*
X145225518Y-50974188D01*
X145105820Y-51010498D01*
X144995506Y-51069463D01*
X144898815Y-51148815D01*
X144819463Y-51245506D01*
X144760498Y-51355820D01*
X144724188Y-51475518D01*
X144711928Y-51600000D01*
X125627000Y-51600000D01*
X125627000Y-50627000D01*
X169373000Y-50627000D01*
X169373000Y-146873000D01*
G37*
G04 #@! TD.AperFunction*
M02*
