G04 #@! TF.GenerationSoftware,KiCad,Pcbnew,(5.1.9)-1*
G04 #@! TF.CreationDate,2021-05-10T16:50:12-05:00*
G04 #@! TF.ProjectId,mini-remote,6d696e69-2d72-4656-9d6f-74652e6b6963,1*
G04 #@! TF.SameCoordinates,Original*
G04 #@! TF.FileFunction,Soldermask,Top*
G04 #@! TF.FilePolarity,Negative*
%FSLAX46Y46*%
G04 Gerber Fmt 4.6, Leading zero omitted, Abs format (unit mm)*
G04 Created by KiCad (PCBNEW (5.1.9)-1) date 2021-05-10 16:50:12*
%MOMM*%
%LPD*%
G01*
G04 APERTURE LIST*
%ADD10R,2.100000X1.400000*%
%ADD11C,2.200000*%
%ADD12O,1.700000X1.700000*%
%ADD13C,1.700000*%
%ADD14R,1.800000X1.800000*%
%ADD15C,1.800000*%
G04 APERTURE END LIST*
D10*
X167050000Y-56750000D03*
X157950000Y-56750000D03*
X167050000Y-52250000D03*
X157950000Y-52250000D03*
X167050000Y-145250000D03*
X157950000Y-145250000D03*
X167050000Y-140750000D03*
X157950000Y-140750000D03*
X152050000Y-145250000D03*
X142950000Y-145250000D03*
X152050000Y-140750000D03*
X142950000Y-140750000D03*
X137050000Y-145250000D03*
X127950000Y-145250000D03*
X137050000Y-140750000D03*
X127950000Y-140750000D03*
X137050000Y-56750000D03*
X127950000Y-56750000D03*
X137050000Y-52250000D03*
X127950000Y-52250000D03*
X137050000Y-104750000D03*
X127950000Y-104750000D03*
X137050000Y-100250000D03*
X127950000Y-100250000D03*
X144550000Y-91250000D03*
X135450000Y-91250000D03*
X144550000Y-86750000D03*
X135450000Y-86750000D03*
X160050000Y-91250000D03*
X150950000Y-91250000D03*
X160050000Y-86750000D03*
X150950000Y-86750000D03*
X152050000Y-104750000D03*
X142950000Y-104750000D03*
X152050000Y-100250000D03*
X142950000Y-100250000D03*
X167050000Y-131750000D03*
X157950000Y-131750000D03*
X167050000Y-127250000D03*
X157950000Y-127250000D03*
X167050000Y-104750000D03*
X157950000Y-104750000D03*
X167050000Y-100250000D03*
X157950000Y-100250000D03*
X137050000Y-70250000D03*
X127950000Y-70250000D03*
X137050000Y-65750000D03*
X127950000Y-65750000D03*
X167050000Y-118250000D03*
X157950000Y-118250000D03*
X167050000Y-113750000D03*
X157950000Y-113750000D03*
X152050000Y-131750000D03*
X142950000Y-131750000D03*
X152050000Y-127250000D03*
X142950000Y-127250000D03*
X152050000Y-118250000D03*
X142950000Y-118250000D03*
X152050000Y-113750000D03*
X142950000Y-113750000D03*
X137050000Y-131750000D03*
X127950000Y-131750000D03*
X137050000Y-127250000D03*
X127950000Y-127250000D03*
X137050000Y-118250000D03*
X127950000Y-118250000D03*
X137050000Y-113750000D03*
X127950000Y-113750000D03*
X167050000Y-70250000D03*
X157950000Y-70250000D03*
X167050000Y-65750000D03*
X157950000Y-65750000D03*
X152050000Y-70250000D03*
X142950000Y-70250000D03*
X152050000Y-65750000D03*
X142950000Y-65750000D03*
D11*
X147500000Y-95750000D03*
D12*
X164750000Y-90290000D03*
D13*
X164750000Y-87750000D03*
X130250000Y-92830000D03*
D12*
X130250000Y-90290000D03*
X130250000Y-87750000D03*
X130250000Y-85210000D03*
D14*
X148750000Y-56500000D03*
D15*
X146210000Y-56500000D03*
D11*
X129500000Y-136250000D03*
X165500000Y-136250000D03*
X165500000Y-61250000D03*
X129500000Y-61250000D03*
D15*
X148790000Y-52500000D03*
D14*
X146250000Y-52500000D03*
M02*
