G04 #@! TF.GenerationSoftware,KiCad,Pcbnew,(5.1.9)-1*
G04 #@! TF.CreationDate,2021-05-10T16:50:12-05:00*
G04 #@! TF.ProjectId,mini-remote,6d696e69-2d72-4656-9d6f-74652e6b6963,1*
G04 #@! TF.SameCoordinates,Original*
G04 #@! TF.FileFunction,Soldermask,Bot*
G04 #@! TF.FilePolarity,Negative*
%FSLAX46Y46*%
G04 Gerber Fmt 4.6, Leading zero omitted, Abs format (unit mm)*
G04 Created by KiCad (PCBNEW (5.1.9)-1) date 2021-05-10 16:50:12*
%MOMM*%
%LPD*%
G01*
G04 APERTURE LIST*
%ADD10R,2.100000X1.400000*%
%ADD11C,2.200000*%
%ADD12O,1.700000X1.700000*%
%ADD13C,1.700000*%
%ADD14C,17.800000*%
%ADD15R,2.500000X5.100000*%
%ADD16R,1.800000X1.800000*%
%ADD17C,1.800000*%
%ADD18R,0.800000X0.900000*%
G04 APERTURE END LIST*
D10*
X152050000Y-75000000D03*
X142950000Y-75000000D03*
X152050000Y-79500000D03*
X142950000Y-79500000D03*
D11*
X147500000Y-95750000D03*
G36*
G01*
X146187500Y-61549999D02*
X146187500Y-62450001D01*
G75*
G02*
X145937501Y-62700000I-249999J0D01*
G01*
X145412499Y-62700000D01*
G75*
G02*
X145162500Y-62450001I0J249999D01*
G01*
X145162500Y-61549999D01*
G75*
G02*
X145412499Y-61300000I249999J0D01*
G01*
X145937501Y-61300000D01*
G75*
G02*
X146187500Y-61549999I0J-249999D01*
G01*
G37*
G36*
G01*
X148012500Y-61549999D02*
X148012500Y-62450001D01*
G75*
G02*
X147762501Y-62700000I-249999J0D01*
G01*
X147237499Y-62700000D01*
G75*
G02*
X146987500Y-62450001I0J249999D01*
G01*
X146987500Y-61549999D01*
G75*
G02*
X147237499Y-61300000I249999J0D01*
G01*
X147762501Y-61300000D01*
G75*
G02*
X148012500Y-61549999I0J-249999D01*
G01*
G37*
D12*
X164750000Y-90290000D03*
D13*
X164750000Y-87750000D03*
X130250000Y-92830000D03*
D12*
X130250000Y-90290000D03*
X130250000Y-87750000D03*
X130250000Y-85210000D03*
D14*
X147500000Y-110000000D03*
D15*
X158950000Y-110000000D03*
X136050000Y-110000000D03*
D16*
X148750000Y-56500000D03*
D17*
X146210000Y-56500000D03*
G36*
G01*
X152049999Y-53987500D02*
X152950001Y-53987500D01*
G75*
G02*
X153200000Y-54237499I0J-249999D01*
G01*
X153200000Y-54762501D01*
G75*
G02*
X152950001Y-55012500I-249999J0D01*
G01*
X152049999Y-55012500D01*
G75*
G02*
X151800000Y-54762501I0J249999D01*
G01*
X151800000Y-54237499D01*
G75*
G02*
X152049999Y-53987500I249999J0D01*
G01*
G37*
G36*
G01*
X152049999Y-52162500D02*
X152950001Y-52162500D01*
G75*
G02*
X153200000Y-52412499I0J-249999D01*
G01*
X153200000Y-52937501D01*
G75*
G02*
X152950001Y-53187500I-249999J0D01*
G01*
X152049999Y-53187500D01*
G75*
G02*
X151800000Y-52937501I0J249999D01*
G01*
X151800000Y-52412499D01*
G75*
G02*
X152049999Y-52162500I249999J0D01*
G01*
G37*
G36*
G01*
X156700001Y-79837500D02*
X155799999Y-79837500D01*
G75*
G02*
X155550000Y-79587501I0J249999D01*
G01*
X155550000Y-79062499D01*
G75*
G02*
X155799999Y-78812500I249999J0D01*
G01*
X156700001Y-78812500D01*
G75*
G02*
X156950000Y-79062499I0J-249999D01*
G01*
X156950000Y-79587501D01*
G75*
G02*
X156700001Y-79837500I-249999J0D01*
G01*
G37*
G36*
G01*
X156700001Y-78012500D02*
X155799999Y-78012500D01*
G75*
G02*
X155550000Y-77762501I0J249999D01*
G01*
X155550000Y-77237499D01*
G75*
G02*
X155799999Y-76987500I249999J0D01*
G01*
X156700001Y-76987500D01*
G75*
G02*
X156950000Y-77237499I0J-249999D01*
G01*
X156950000Y-77762501D01*
G75*
G02*
X156700001Y-78012500I-249999J0D01*
G01*
G37*
D11*
X129500000Y-136250000D03*
X165500000Y-136250000D03*
X165500000Y-61250000D03*
X129500000Y-61250000D03*
D17*
X148790000Y-52500000D03*
D16*
X146250000Y-52500000D03*
G36*
G01*
X131375000Y-75475000D02*
X131375000Y-75675000D01*
G75*
G02*
X131275000Y-75775000I-100000J0D01*
G01*
X130000000Y-75775000D01*
G75*
G02*
X129900000Y-75675000I0J100000D01*
G01*
X129900000Y-75475000D01*
G75*
G02*
X130000000Y-75375000I100000J0D01*
G01*
X131275000Y-75375000D01*
G75*
G02*
X131375000Y-75475000I0J-100000D01*
G01*
G37*
G36*
G01*
X131375000Y-76125000D02*
X131375000Y-76325000D01*
G75*
G02*
X131275000Y-76425000I-100000J0D01*
G01*
X130000000Y-76425000D01*
G75*
G02*
X129900000Y-76325000I0J100000D01*
G01*
X129900000Y-76125000D01*
G75*
G02*
X130000000Y-76025000I100000J0D01*
G01*
X131275000Y-76025000D01*
G75*
G02*
X131375000Y-76125000I0J-100000D01*
G01*
G37*
G36*
G01*
X131375000Y-76775000D02*
X131375000Y-76975000D01*
G75*
G02*
X131275000Y-77075000I-100000J0D01*
G01*
X130000000Y-77075000D01*
G75*
G02*
X129900000Y-76975000I0J100000D01*
G01*
X129900000Y-76775000D01*
G75*
G02*
X130000000Y-76675000I100000J0D01*
G01*
X131275000Y-76675000D01*
G75*
G02*
X131375000Y-76775000I0J-100000D01*
G01*
G37*
G36*
G01*
X131375000Y-77425000D02*
X131375000Y-77625000D01*
G75*
G02*
X131275000Y-77725000I-100000J0D01*
G01*
X130000000Y-77725000D01*
G75*
G02*
X129900000Y-77625000I0J100000D01*
G01*
X129900000Y-77425000D01*
G75*
G02*
X130000000Y-77325000I100000J0D01*
G01*
X131275000Y-77325000D01*
G75*
G02*
X131375000Y-77425000I0J-100000D01*
G01*
G37*
G36*
G01*
X131375000Y-78075000D02*
X131375000Y-78275000D01*
G75*
G02*
X131275000Y-78375000I-100000J0D01*
G01*
X130000000Y-78375000D01*
G75*
G02*
X129900000Y-78275000I0J100000D01*
G01*
X129900000Y-78075000D01*
G75*
G02*
X130000000Y-77975000I100000J0D01*
G01*
X131275000Y-77975000D01*
G75*
G02*
X131375000Y-78075000I0J-100000D01*
G01*
G37*
G36*
G01*
X131375000Y-78725000D02*
X131375000Y-78925000D01*
G75*
G02*
X131275000Y-79025000I-100000J0D01*
G01*
X130000000Y-79025000D01*
G75*
G02*
X129900000Y-78925000I0J100000D01*
G01*
X129900000Y-78725000D01*
G75*
G02*
X130000000Y-78625000I100000J0D01*
G01*
X131275000Y-78625000D01*
G75*
G02*
X131375000Y-78725000I0J-100000D01*
G01*
G37*
G36*
G01*
X131375000Y-79375000D02*
X131375000Y-79575000D01*
G75*
G02*
X131275000Y-79675000I-100000J0D01*
G01*
X130000000Y-79675000D01*
G75*
G02*
X129900000Y-79575000I0J100000D01*
G01*
X129900000Y-79375000D01*
G75*
G02*
X130000000Y-79275000I100000J0D01*
G01*
X131275000Y-79275000D01*
G75*
G02*
X131375000Y-79375000I0J-100000D01*
G01*
G37*
G36*
G01*
X131375000Y-80025000D02*
X131375000Y-80225000D01*
G75*
G02*
X131275000Y-80325000I-100000J0D01*
G01*
X130000000Y-80325000D01*
G75*
G02*
X129900000Y-80225000I0J100000D01*
G01*
X129900000Y-80025000D01*
G75*
G02*
X130000000Y-79925000I100000J0D01*
G01*
X131275000Y-79925000D01*
G75*
G02*
X131375000Y-80025000I0J-100000D01*
G01*
G37*
G36*
G01*
X131375000Y-80675000D02*
X131375000Y-80875000D01*
G75*
G02*
X131275000Y-80975000I-100000J0D01*
G01*
X130000000Y-80975000D01*
G75*
G02*
X129900000Y-80875000I0J100000D01*
G01*
X129900000Y-80675000D01*
G75*
G02*
X130000000Y-80575000I100000J0D01*
G01*
X131275000Y-80575000D01*
G75*
G02*
X131375000Y-80675000I0J-100000D01*
G01*
G37*
G36*
G01*
X131375000Y-81325000D02*
X131375000Y-81525000D01*
G75*
G02*
X131275000Y-81625000I-100000J0D01*
G01*
X130000000Y-81625000D01*
G75*
G02*
X129900000Y-81525000I0J100000D01*
G01*
X129900000Y-81325000D01*
G75*
G02*
X130000000Y-81225000I100000J0D01*
G01*
X131275000Y-81225000D01*
G75*
G02*
X131375000Y-81325000I0J-100000D01*
G01*
G37*
G36*
G01*
X137100000Y-81325000D02*
X137100000Y-81525000D01*
G75*
G02*
X137000000Y-81625000I-100000J0D01*
G01*
X135725000Y-81625000D01*
G75*
G02*
X135625000Y-81525000I0J100000D01*
G01*
X135625000Y-81325000D01*
G75*
G02*
X135725000Y-81225000I100000J0D01*
G01*
X137000000Y-81225000D01*
G75*
G02*
X137100000Y-81325000I0J-100000D01*
G01*
G37*
G36*
G01*
X137100000Y-80675000D02*
X137100000Y-80875000D01*
G75*
G02*
X137000000Y-80975000I-100000J0D01*
G01*
X135725000Y-80975000D01*
G75*
G02*
X135625000Y-80875000I0J100000D01*
G01*
X135625000Y-80675000D01*
G75*
G02*
X135725000Y-80575000I100000J0D01*
G01*
X137000000Y-80575000D01*
G75*
G02*
X137100000Y-80675000I0J-100000D01*
G01*
G37*
G36*
G01*
X137100000Y-80025000D02*
X137100000Y-80225000D01*
G75*
G02*
X137000000Y-80325000I-100000J0D01*
G01*
X135725000Y-80325000D01*
G75*
G02*
X135625000Y-80225000I0J100000D01*
G01*
X135625000Y-80025000D01*
G75*
G02*
X135725000Y-79925000I100000J0D01*
G01*
X137000000Y-79925000D01*
G75*
G02*
X137100000Y-80025000I0J-100000D01*
G01*
G37*
G36*
G01*
X137100000Y-79375000D02*
X137100000Y-79575000D01*
G75*
G02*
X137000000Y-79675000I-100000J0D01*
G01*
X135725000Y-79675000D01*
G75*
G02*
X135625000Y-79575000I0J100000D01*
G01*
X135625000Y-79375000D01*
G75*
G02*
X135725000Y-79275000I100000J0D01*
G01*
X137000000Y-79275000D01*
G75*
G02*
X137100000Y-79375000I0J-100000D01*
G01*
G37*
G36*
G01*
X137100000Y-78725000D02*
X137100000Y-78925000D01*
G75*
G02*
X137000000Y-79025000I-100000J0D01*
G01*
X135725000Y-79025000D01*
G75*
G02*
X135625000Y-78925000I0J100000D01*
G01*
X135625000Y-78725000D01*
G75*
G02*
X135725000Y-78625000I100000J0D01*
G01*
X137000000Y-78625000D01*
G75*
G02*
X137100000Y-78725000I0J-100000D01*
G01*
G37*
G36*
G01*
X137100000Y-78075000D02*
X137100000Y-78275000D01*
G75*
G02*
X137000000Y-78375000I-100000J0D01*
G01*
X135725000Y-78375000D01*
G75*
G02*
X135625000Y-78275000I0J100000D01*
G01*
X135625000Y-78075000D01*
G75*
G02*
X135725000Y-77975000I100000J0D01*
G01*
X137000000Y-77975000D01*
G75*
G02*
X137100000Y-78075000I0J-100000D01*
G01*
G37*
G36*
G01*
X137100000Y-77425000D02*
X137100000Y-77625000D01*
G75*
G02*
X137000000Y-77725000I-100000J0D01*
G01*
X135725000Y-77725000D01*
G75*
G02*
X135625000Y-77625000I0J100000D01*
G01*
X135625000Y-77425000D01*
G75*
G02*
X135725000Y-77325000I100000J0D01*
G01*
X137000000Y-77325000D01*
G75*
G02*
X137100000Y-77425000I0J-100000D01*
G01*
G37*
G36*
G01*
X137100000Y-76775000D02*
X137100000Y-76975000D01*
G75*
G02*
X137000000Y-77075000I-100000J0D01*
G01*
X135725000Y-77075000D01*
G75*
G02*
X135625000Y-76975000I0J100000D01*
G01*
X135625000Y-76775000D01*
G75*
G02*
X135725000Y-76675000I100000J0D01*
G01*
X137000000Y-76675000D01*
G75*
G02*
X137100000Y-76775000I0J-100000D01*
G01*
G37*
G36*
G01*
X137100000Y-76125000D02*
X137100000Y-76325000D01*
G75*
G02*
X137000000Y-76425000I-100000J0D01*
G01*
X135725000Y-76425000D01*
G75*
G02*
X135625000Y-76325000I0J100000D01*
G01*
X135625000Y-76125000D01*
G75*
G02*
X135725000Y-76025000I100000J0D01*
G01*
X137000000Y-76025000D01*
G75*
G02*
X137100000Y-76125000I0J-100000D01*
G01*
G37*
G36*
G01*
X137100000Y-75475000D02*
X137100000Y-75675000D01*
G75*
G02*
X137000000Y-75775000I-100000J0D01*
G01*
X135725000Y-75775000D01*
G75*
G02*
X135625000Y-75675000I0J100000D01*
G01*
X135625000Y-75475000D01*
G75*
G02*
X135725000Y-75375000I100000J0D01*
G01*
X137000000Y-75375000D01*
G75*
G02*
X137100000Y-75475000I0J-100000D01*
G01*
G37*
G36*
G01*
X142450001Y-56937500D02*
X141549999Y-56937500D01*
G75*
G02*
X141300000Y-56687501I0J249999D01*
G01*
X141300000Y-56162499D01*
G75*
G02*
X141549999Y-55912500I249999J0D01*
G01*
X142450001Y-55912500D01*
G75*
G02*
X142700000Y-56162499I0J-249999D01*
G01*
X142700000Y-56687501D01*
G75*
G02*
X142450001Y-56937500I-249999J0D01*
G01*
G37*
G36*
G01*
X142450001Y-58762500D02*
X141549999Y-58762500D01*
G75*
G02*
X141300000Y-58512501I0J249999D01*
G01*
X141300000Y-57987499D01*
G75*
G02*
X141549999Y-57737500I249999J0D01*
G01*
X142450001Y-57737500D01*
G75*
G02*
X142700000Y-57987499I0J-249999D01*
G01*
X142700000Y-58512501D01*
G75*
G02*
X142450001Y-58762500I-249999J0D01*
G01*
G37*
D18*
X142000000Y-60250000D03*
X141050000Y-62250000D03*
X142950000Y-62250000D03*
G36*
G01*
X156725000Y-75500000D02*
X155775000Y-75500000D01*
G75*
G02*
X155525000Y-75250000I0J250000D01*
G01*
X155525000Y-74750000D01*
G75*
G02*
X155775000Y-74500000I250000J0D01*
G01*
X156725000Y-74500000D01*
G75*
G02*
X156975000Y-74750000I0J-250000D01*
G01*
X156975000Y-75250000D01*
G75*
G02*
X156725000Y-75500000I-250000J0D01*
G01*
G37*
G36*
G01*
X156725000Y-73600000D02*
X155775000Y-73600000D01*
G75*
G02*
X155525000Y-73350000I0J250000D01*
G01*
X155525000Y-72850000D01*
G75*
G02*
X155775000Y-72600000I250000J0D01*
G01*
X156725000Y-72600000D01*
G75*
G02*
X156975000Y-72850000I0J-250000D01*
G01*
X156975000Y-73350000D01*
G75*
G02*
X156725000Y-73600000I-250000J0D01*
G01*
G37*
G36*
G01*
X139725000Y-80000000D02*
X138775000Y-80000000D01*
G75*
G02*
X138525000Y-79750000I0J250000D01*
G01*
X138525000Y-79250000D01*
G75*
G02*
X138775000Y-79000000I250000J0D01*
G01*
X139725000Y-79000000D01*
G75*
G02*
X139975000Y-79250000I0J-250000D01*
G01*
X139975000Y-79750000D01*
G75*
G02*
X139725000Y-80000000I-250000J0D01*
G01*
G37*
G36*
G01*
X139725000Y-81900000D02*
X138775000Y-81900000D01*
G75*
G02*
X138525000Y-81650000I0J250000D01*
G01*
X138525000Y-81150000D01*
G75*
G02*
X138775000Y-80900000I250000J0D01*
G01*
X139725000Y-80900000D01*
G75*
G02*
X139975000Y-81150000I0J-250000D01*
G01*
X139975000Y-81650000D01*
G75*
G02*
X139725000Y-81900000I-250000J0D01*
G01*
G37*
M02*
