M48
; DRILL file {KiCad (5.1.9)-1} date 05/10/21 16:50:15
; FORMAT={-:-/ absolute / inch / decimal}
; #@! TF.CreationDate,2021-05-10T16:50:15-05:00
; #@! TF.GenerationSoftware,Kicad,Pcbnew,(5.1.9)-1
; #@! TF.FileFunction,Plated,1,2,PTH
FMAT,2
INCH
T1C0.0118
T2C0.0354
T3C0.0394
%
G90
G05
T1
X4.9878Y-3.0972
X5.0077Y-3.1178
X5.0276Y-3.1384
X5.0475Y-3.159
X5.0683Y-3.1786
X5.0886Y-3.1988
X5.315Y-3.1988
X5.3468Y-2.6551
X5.4232Y-3.1791
X5.4241Y-2.9634
X5.4528Y-2.4902
X5.4528Y-2.5197
T2
X5.7563Y-2.2244
X5.7579Y-2.0669
X5.8563Y-2.2244
X5.8579Y-2.0669
T3
X5.128Y-3.3547
X5.128Y-3.4547
X5.128Y-3.5547
X5.128Y-3.6547
X6.4862Y-3.4547
X6.4862Y-3.5547
T0
M30
